<svg width="192" height="159" viewBox="0 0 192 159" fill="none" xmlns="http://www.w3.org/2000/svg">
<g clip-path="url(#clip0_0_21)">
<path d="M120.87 133.385C120.87 153.415 97.9771 168.084 77.061 152.403C76.8372 152.24 76.6506 152.04 76.4766 151.828C67.2869 139.483 68.5304 126.463 75.146 117.816C76.5014 116.029 78.0931 114.418 79.8714 113.068C84.1615 109.757 89.5336 107.783 95.3657 107.783C100.986 107.783 106.172 109.619 110.387 112.718C112.203 114.043 113.832 115.605 115.225 117.366C118.756 121.74 120.87 127.312 120.87 133.385Z" fill="black"/>
<path d="M136.763 81.393C127.324 75.8327 116.68 72.1341 105.314 70.8347L78.006 98.2739C83.6641 96.3246 89.72 95.2751 95.9998 95.2751C106.259 95.2751 115.909 98.074 124.19 102.947C129.065 105.808 135.233 105.009 139.225 100.998C141.687 98.5238 142.881 95.325 142.881 92.1513C142.881 87.9279 140.767 83.7546 136.763 81.393ZM55.2371 81.393C50.7604 84.0295 48.6589 88.94 49.2185 93.6382L67.1376 75.6328C62.9967 77.2321 59.0299 79.1564 55.2371 81.393Z" fill="black"/>
<path d="M95.9999 35.2986C71.1045 35.2986 47.9999 43.2455 29.1107 56.7527C22.8683 61.2134 22.2092 70.2849 27.6185 75.7202C30.0185 78.1318 33.1771 79.3563 36.3729 79.3563C38.9221 79.3563 41.4962 78.5691 43.7097 76.9947C54.6776 69.1978 67.4113 63.7874 81.1895 61.5133L106.781 35.7984C103.237 35.4736 99.631 35.2986 95.9999 35.2986ZM162.889 56.7527C154.159 50.4927 144.497 45.4446 134.201 41.8086L114.006 62.1006C126.553 64.6371 138.18 69.8101 148.29 76.9947C153.277 80.5433 160.066 80.056 164.381 75.7202C166.831 73.2587 168.037 70.035 168.037 66.8362C168.037 63.0002 166.296 59.1892 162.889 56.7527Z" fill="black"/>
<path d="M96.0001 1.56189C61.7286 1.56189 30.1183 13.2448 4.89963 32.8371C-1.05685 37.4728 -1.69104 46.2693 3.63124 51.6172C6.04367 54.0413 9.22709 55.2783 12.4229 55.2783C15.0841 55.2783 17.7452 54.4161 19.9836 52.6793C41.024 36.3107 67.3991 26.5521 96.0001 26.5521C102.317 26.5521 108.535 27.0269 114.603 27.939L135.532 6.90978C122.935 3.42365 109.679 1.56189 96.0001 1.56189ZM187.101 32.8371C178.682 26.3022 169.567 20.6419 159.868 16.0187L140.966 35.0112C152.195 39.397 162.641 45.3822 172.017 52.6793C176.941 56.5153 183.955 56.053 188.369 51.6172C190.806 49.1682 192 45.9944 192 42.8332C192 39.0846 190.334 35.3486 187.101 32.8371Z" fill="black"/>
<path d="M157.107 11.7204L155.03 13.8071L135.805 33.1245L128.879 40.0842L107.975 61.0885L98.7732 70.3349L65.1732 104.097L44.5555 124.813C41.8944 127.5 37.5545 127.5 34.8934 124.813C32.2198 122.139 32.2198 117.779 34.8934 115.105L147.445 2.01171C150.106 -0.674735 154.446 -0.674735 157.107 2.01171C159.78 4.68566 159.78 9.04644 157.107 11.7204Z" fill="black"/>
</g>
<defs>
<clipPath id="clip0_0_21">
<rect width="192" height="159" fill="white"/>
</clipPath>
</defs>
</svg>
