<svg width="212" height="191" viewBox="0 0 212 191" fill="none" xmlns="http://www.w3.org/2000/svg">
<g clip-path="url(#clip0_0_34)">
<path d="M124.034 102.809C124.034 118.43 106.088 129.87 89.6918 117.64C89.5163 117.514 89.3701 117.358 89.2336 117.192C82.0298 107.564 83.0046 97.41 88.1906 90.6665C89.2531 89.273 90.5009 88.0159 91.8948 86.9635C95.2579 84.3811 99.4691 82.8414 104.041 82.8414C108.447 82.8414 112.512 84.2739 115.816 86.6906C117.24 87.7236 118.517 88.9417 119.608 90.3157C122.377 93.7264 124.034 98.0727 124.034 102.809Z" fill="#9293FF"/>
<path d="M104.538 53.5969C92.8888 53.5969 81.971 56.7543 72.5836 62.2602C67.0955 65.4857 66.1499 73.038 70.6535 77.5402C73.7826 80.6683 78.6274 81.3017 82.4486 79.0604C88.9408 75.2598 96.5053 73.077 104.547 73.077C112.59 73.077 120.154 75.2598 126.646 79.0604C130.467 81.2919 135.312 80.6683 138.441 77.5402C142.945 73.038 141.999 65.476 136.511 62.2602C127.104 56.7543 116.177 53.5969 104.538 53.5969Z" fill="#9293FF"/>
<path d="M104.538 26.3112C85.0224 26.3112 66.9106 32.509 52.1033 43.0432C47.2196 46.5221 46.6932 53.5872 50.9336 57.8262C54.3259 61.2174 59.6386 61.5878 63.5573 58.8202C75.1379 50.6247 89.292 45.801 104.538 45.801C119.784 45.801 133.928 50.6247 145.528 58.8299C149.437 61.5975 154.76 61.2272 158.152 57.836C162.392 53.5969 161.866 46.5221 156.982 43.053C142.165 32.509 124.053 26.3112 104.538 26.3112Z" fill="#9293FF"/>
<path d="M104.538 0C77.6723 0 52.8928 9.11148 33.1238 24.3915C28.4545 28.0068 27.9574 34.8672 32.1295 39.0381C35.5901 42.4975 41.088 42.8581 44.9482 39.8664C61.4418 27.1006 82.1174 19.4898 104.538 19.4898C126.958 19.4898 147.634 27.1006 164.128 39.8664C167.997 42.8581 173.495 42.4975 176.946 39.0381C181.118 34.8672 180.621 28.0068 175.952 24.3915C156.183 9.11148 131.394 0 104.538 0Z" fill="#9293FF"/>
<path d="M152.449 161.502C156.29 170.945 149.213 181.255 139.016 181.255H71.0337C60.8372 181.255 53.7602 170.945 57.6009 161.502C65.2141 142.802 83.5794 129.607 105.025 129.607C126.471 129.607 144.836 142.802 152.449 161.502Z" fill="#9293FF"/>
<path d="M182.522 112.554C182.522 128.175 164.576 139.615 148.18 127.385C148.004 127.259 147.858 127.103 147.721 126.937C140.518 117.309 141.492 107.155 146.678 100.411C147.741 99.0179 148.989 97.7608 150.383 96.7084C153.746 94.126 157.957 92.5863 162.529 92.5863C166.935 92.5863 171 94.0188 174.304 96.4355C175.727 97.4685 177.004 98.6866 178.096 100.061C180.865 103.471 182.522 107.818 182.522 112.554Z" fill="black"/>
<path d="M210.937 171.247C214.778 180.69 207.701 191 197.505 191H129.522C119.326 191 112.248 180.69 116.089 171.247C123.702 152.537 142.068 139.352 163.513 139.352C184.959 139.352 203.324 152.547 210.937 171.247Z" fill="black"/>
<path d="M67.4955 112.554C67.4955 128.175 49.5494 139.615 33.1532 127.385C32.9777 127.259 32.8315 127.103 32.6951 126.937C25.4913 117.309 26.4661 107.155 31.652 100.411C32.7145 99.0179 33.9623 97.7608 35.3563 96.7084C38.7193 94.1162 42.9402 92.5765 47.512 92.5765C51.9182 92.5765 55.9831 94.009 59.2877 96.4258C60.7109 97.4587 61.9879 98.6768 63.0796 100.051C65.8383 103.471 67.4955 107.818 67.4955 112.554Z" fill="black"/>
<path d="M95.9106 171.247C99.7513 180.69 92.6742 191 82.4778 191H14.4951C4.29866 191 -2.77841 180.69 1.06231 171.247C8.67552 152.547 27.0408 139.352 48.4864 139.352C69.9321 139.352 88.2974 152.547 95.9106 171.247Z" fill="black"/>
</g>
<defs>
<clipPath id="clip0_0_34">
<rect width="212" height="191" fill="white"/>
</clipPath>
</defs>
</svg>
