<svg width="43" height="43" viewBox="0 0 43 43" fill="none" xmlns="http://www.w3.org/2000/svg">
<path d="M11.6184 7.60609C10.773 8.00056 10.1582 8.54126 9.43856 9.14174C9.13767 9.3928 9.20793 9.81012 9.30616 10.1332C9.51684 10.8263 9.43163 11.5963 9.53797 12.3154C9.62415 12.8982 9.55237 13.4671 9.63031 14.0476C9.69418 14.5235 9.98362 14.9617 10.072 15.4255C10.2729 16.4802 11.0156 17.3802 11.4581 18.3594C11.7162 18.9307 12.2011 19.3819 12.4412 19.9619C12.8457 20.9391 13.2712 21.9943 13.7778 22.9214C14.9969 25.1525 16.4072 27.2605 18.0381 29.2152C18.7606 30.0811 19.4337 31.0528 20.2415 31.837C20.7154 32.297 21.4267 32.6377 21.9752 33.0098C22.5584 33.4054 23.1522 33.7543 23.7947 34.0403C24.9614 34.5596 26.1429 35.0383 27.3575 35.3311C28.6106 35.6331 29.975 36.004 31.2608 35.7006C31.7483 35.5856 32.2607 35.7062 32.7525 35.7067C33.2078 35.7071 33.6109 35.5411 34.0516 35.4723C34.8316 35.3505 35.4062 34.7462 36.06 34.3629C36.8208 33.9169 36.7178 33.7687 36.9655 32.9309C37.2233 32.0586 37.6845 31.0045 37.7231 30.0961C37.7643 29.1254 37.4889 28.4305 37.0534 27.5871C36.5885 26.6869 35.6002 25.8266 34.9421 25.038C34.4399 24.436 33.9738 23.8063 33.3612 23.3129C32.2516 22.4192 30.8405 21.9194 29.5065 21.5026C28.0936 21.061 26.7571 20.5209 25.4254 19.8734C24.7359 19.5381 24.032 19.2816 23.4604 18.744C22.7384 18.0649 21.864 17.4895 21.2227 16.7409C20.4685 15.8605 19.7366 14.9598 18.9938 14.0697C18.223 13.1458 17.3835 12.2815 16.969 11.1338C16.6961 10.3784 16.3818 9.51844 16.0202 8.81826C15.7493 8.2936 15.5392 7.72324 15.157 7.26517C14.6086 6.60803 14.1416 6.12566 13.2199 6.30126C12.9027 6.3617 12.5555 6.31482 12.2324 6.31502C11.9985 6.31516 11.6214 6.754 11.4509 6.89628C10.8605 7.38889 10.1476 8.08831 10.419 8.92151C10.8814 10.3412 11.5368 11.581 12.5094 12.7467C13.3736 13.7824 14.2378 14.8181 15.102 15.8538C15.6644 16.5278 16.2267 17.2018 16.7891 17.8758C16.97 18.0926 16.959 18.1014 16.7209 17.6338C16.4292 17.0609 15.005 14.3455 14.9223 14.1866C14.5738 13.5175 13.5386 11.5532 13.1306 10.6629C13.0779 10.5478 12.7703 10.1063 13.0692 10.2028C13.813 10.4428 14.6374 11.8637 15.055 12.479C15.5927 13.2712 15.8482 14.2308 16.3713 14.9993C17.3099 16.3782 17.6443 18.2023 18.3129 19.7115C19.1001 21.4882 20.3885 23.1358 21.4968 24.7246C23.0181 26.9055 24.936 29.1761 27.288 30.4963C28.1351 30.9717 26.1473 28.9217 25.5249 28.1758C23.7668 26.0688 22.0088 23.9618 20.2507 21.8548C19.5601 21.0272 18.8355 20.2236 18.2454 19.3195C17.6763 18.4475 17.2069 17.5396 16.5873 16.6912C16.3152 16.3186 15.3495 14.6493 14.9728 15.7178C14.1974 17.9168 13.9422 20.6291 15.3235 22.6149C17.4927 25.7336 20.6795 27.8116 24.0363 29.4651C24.4826 29.685 25.0866 30.0297 25.5996 30.1509C26.3282 30.3229 24.8152 28.8698 24.3395 28.2918C22.9289 26.5778 21.5097 24.8658 20.0203 23.2191C19.7643 22.936 17.3781 20.309 19.0656 22.584C20.552 24.5878 22.0988 26.545 23.6243 28.5188C24.6752 29.8785 25.6467 31.4581 27.0093 32.538C27.4859 32.9157 28.0918 33.2488 28.7165 33.2453C29.3802 33.2417 29.2915 31.9778 29.2885 31.6117C29.2744 29.8407 28.6791 28.3371 27.7544 26.8505C27.7217 26.798 26.0648 24.6383 27.3618 26.1161C28.3677 27.2621 29.392 28.3923 30.4117 29.5261C31.3127 30.528 32.1872 31.5856 33.2841 32.3841C33.7175 32.6996 35.1078 33.6585 34.5662 32.3369C34.115 31.236 31.7474 28.5061 32.5096 29.4196C32.7563 29.7153 33.3996 30.8763 33.8318 30.2122C34.6298 28.9859 32.4464 26.5889 31.8292 25.7947C30.881 24.5745 29.8571 23.1073 28.5774 22.1991C28.3544 22.0409 28.0898 21.953 27.8489 22.0991C27.2276 22.4757 26.5248 22.3947 25.8314 22.3114C25.0324 22.2156 24.242 22.0651 23.4446 21.9587C23.3629 21.9478 22.7331 21.7762 22.8887 22.0372C23.3673 22.8401 24.118 23.6099 24.7074 24.3112C25.3379 25.0613 26.3404 26.243 27.0229 26.9731C27.3235 27.2947 28.0593 28.2814 28.0164 27.8433C27.9971 27.6469 27.8221 27.4988 27.706 27.3393C27.4274 26.9565 27.1304 26.5874 26.8337 26.2185C26.0733 25.2729 24.542 23.4414 23.7953 22.5393C22.8694 21.4207 22.0015 20.3164 21.2304 19.1259" stroke="white" stroke-width="3" stroke-linecap="round"/>
<path d="M10.3778 8.67557C10.0275 8.62527 9.9963 8.66823 9.71986 8.89889C9.58211 9.01382 9.39887 9.34047 9.30496 9.0521C9.20042 8.73113 10.5958 7.67844 10.8774 7.51089C11.0273 7.42173 11.387 7.27904 11.565 7.32312C11.8033 7.3821 11.9032 7.61942 11.7023 7.76945C11.3841 8.00703 10.8749 8.26808 10.4831 8.3103C10.2172 8.33896 9.73887 8.46346 9.75252 8.02737C9.76052 7.77165 9.8468 7.53402 10.0278 7.34542C10.6665 6.67981 11.6803 5.68813 12.649 5.80355C12.7359 5.81391 13.1067 5.97876 13.1614 6.02733C13.3964 6.2362 13.5782 6.26666 13.7937 6.52494C14.1348 6.93373 14.7306 7.9444 14.829 6.8551C14.8996 6.0732 13.7184 5.11505 13.0154 4.94902C11.8325 4.66963 10.7715 5.93359 10.6169 7.01068C10.5881 7.21097 10.8414 7.39387 10.9213 7.57074C10.9888 7.71992 11.0632 7.86664 11.1345 8.01406C11.2854 8.32624 10.8982 7.3382 10.934 6.99329C11.0015 6.34238 11.3176 5.83986 11.3716 5.24114C11.4033 4.89001 10.7792 5.56021 10.7091 5.66129C10.6688 5.71934 10.5611 5.78311 10.6321 5.85817C10.7557 5.98878 11.1066 5.38338 11.1784 5.30588C11.4527 5.00974 11.6164 4.71127 11.9367 4.44399C12.2481 4.18423 12.6061 4.84148 12.7766 5.04581" stroke="white" stroke-width="3" stroke-linecap="round"/>
<path d="M11.0433 15.7185C10.9958 16.2444 11.0659 16.6257 11.1829 17.1217C11.2552 17.4279 11.5235 17.71 11.5463 18.0125C11.5699 18.326 11.826 18.6789 11.8926 19.0202C11.9473 19.3013 11.9881 19.5065 12.1385 19.7557C12.6935 20.676 13.3433 21.337 14.0139 22.1408" stroke="white" stroke-width="3" stroke-linecap="round"/>
<path d="M12.6732 7.86695C13.211 8.30183 13.4475 8.82609 13.7429 9.44337C14.2182 10.4367 14.8102 11.3477 15.3423 12.3083C15.5778 12.7335 15.9257 13.289 15.9696 13.7865C16.0245 14.4094 15.3275 12.7129 15.0272 12.1643C13.9915 10.2723 12.7432 8.32686 11.9972 6.29399C11.9551 6.17921 11.7516 4.98358 12.0621 5.323C13.1428 6.50407 14.0082 8.11496 14.7879 9.50689C14.8261 9.57512 15.8303 11.5434 15.2477 11.1092C14.527 10.572 13.9762 9.71617 13.5252 8.95533C13.2926 8.56302 12.8261 7.27083 12.9843 7.69859C13.8911 10.1512 15.4385 12.348 16.3176 14.8202C16.5655 15.5174 17.1775 16.2196 17.6132 16.7951C17.6606 16.8577 18.6975 18.0963 18.1957 17.4235C17.4386 16.4085 16.7401 15.3513 16.0548 14.2869C15.8629 13.989 15.6661 13.5781 16.1379 14.0976C16.885 14.92 17.5012 15.8883 18.1299 16.8017C18.5926 17.474 18.9972 18.1922 19.4935 18.8404C19.8837 19.35 19.3315 18.9076 19.1502 18.7348C17.7272 17.378 16.4248 15.5131 15.3996 13.8242C15.2592 13.593 15.1072 13.3233 15.0009 13.0732C14.8067 12.6164 15.9679 13.3813 16.356 13.6908C17.8075 14.8481 19.3229 16.1543 20.5299 17.5731C20.8043 17.8956 21.0101 18.1432 21.1815 18.5198C21.4304 19.0667 20.1334 17.9257 19.6521 17.566C18.7786 16.9132 17.8829 16.0868 16.8033 15.7845C15.89 15.5287 17.4487 17.8079 17.4535 17.8148C18.3814 19.1416 19.3754 20.4711 20.4639 21.6719C20.9587 22.2178 21.4887 22.3254 22.0931 22.7006C22.4258 22.9072 23.0807 23.6038 22.2878 22.7268C21.2744 21.606 20.0873 20.6374 18.9789 19.6139C17.7078 18.4402 19.4992 20.0412 19.7315 20.2662C20.8684 21.3671 22.0999 22.4638 23.1377 23.659C23.6968 24.3029 21.5663 23.5437 21.4844 23.5148C20.4565 23.1517 19.4793 22.7157 18.5871 22.0818C18.5174 22.0322 17.1315 20.6746 17.649 21.2153C18.7591 22.3754 19.9345 23.5272 20.9054 24.8078C21.4454 25.52 21.9464 26.458 20.7896 25.0845C18.6614 22.5576 16.6539 19.8631 14.9217 17.0477C14.2104 15.8915 16.4302 18.7043 16.493 18.7935C17.591 20.3528 18.5038 22.0511 19.3436 23.7607C20.1301 25.3619 19.616 24.6011 18.8863 23.6446C18.6495 23.3342 16.3344 20.7872 16.5768 20.3776C16.7497 20.0854 17.0651 20.8544 17.2627 21.1305C17.9203 22.0487 18.5011 23.0267 19.1102 23.9772C19.4608 24.5245 19.6393 24.7837 19.9463 25.3269C20.0344 25.4828 20.1176 25.6416 20.198 25.8016C20.3637 26.1315 20.2615 25.9702 20.1788 25.8327C19.3673 24.4846 18.4837 23.2286 17.5118 21.9908C16.765 21.0399 16.5856 20.7299 17.2673 22.1489C17.9805 23.6334 19.1499 25.2612 19.5068 26.8873C19.5641 27.1483 19.2813 26.8157 19.2531 26.79C18.4237 26.0351 17.6525 25.1947 16.9344 24.3349C16.5973 23.9313 16.1715 23.3774 15.8837 22.908C15.6715 22.5618 15.7564 22.5022 16.0741 22.8024C17.0939 23.7659 17.8108 25.0086 18.467 26.2331C18.9485 27.1317 20.235 29.8666 20.0135 28.8716C19.904 28.3798 19.5825 27.9605 19.3506 27.5133C18.2952 25.4784 17.2083 23.4594 16.1173 21.4435C15.2868 19.9089 15.295 19.9343 14.5297 18.5386C14.2416 18.0131 13.197 16.5943 13.6739 16.9573C13.9477 17.1657 14.0703 17.5198 14.2694 17.8004C15.1493 19.0404 16.0231 20.2794 16.8106 21.5814C17.5445 22.7946 19.7881 26.3765 18.8472 25.3158C16.7833 22.9896 15.5427 19.8557 13.7742 17.2949C13.7269 17.2265 13.6008 17.0166 13.6634 17.0713C13.7682 17.1626 14.0178 17.5598 14.0417 17.5987C14.5248 18.3865 15.2238 19.4683 15.2252 20.4336C15.2261 20.9915 13.2082 17.877 13.1828 17.8315C12.6757 16.9237 11.9836 15.5812 11.5231 14.6408C11.4803 14.5533 10.4514 12.7538 10.5941 12.4288C10.701 12.1853 10.9584 12.8198 11.104 13.0423C11.7109 13.9693 12.2536 14.9406 12.7679 15.9214C12.8348 16.049 13.997 18.5748 13.4007 17.0717C12.9697 15.9851 12.5629 14.8972 12.0393 13.851C11.486 12.7455 12.4087 13.7645 12.6873 14.1242C13.0762 14.6264 13.5706 15.3161 13.7004 15.9581C13.9922 17.4011 12.5746 13.2363 12.0759 11.8511C11.9462 11.4908 11.7848 11.139 11.6998 10.7656C11.675 10.6565 11.9451 10.7136 12.0351 10.7801C12.9271 11.439 13.4836 12.5206 14.0989 13.417C14.6415 14.2073 13.6466 12.1476 13.6218 12.0922C13.3392 11.4622 13.1378 10.7525 12.7561 10.1734C12.6217 9.9696 11.9229 8.21447 11.8006 8.42685C11.5379 8.88273 11.7093 9.82271 11.7759 10.2964C11.9375 11.4446 12.3498 12.5824 12.8397 13.6292C13.032 14.0403 13.2555 14.1298 13.6166 14.3741C14.7547 15.1441 15.7533 16.1379 16.8136 17.0087C18.3768 18.2926 19.8556 19.5187 21.7307 20.2207C22.4491 20.4896 23.0074 20.8864 23.6708 21.2616C24.0654 21.4849 25.2859 21.8912 24.8378 21.9603C24.065 22.0795 22.8796 21.3312 22.2678 20.9845C21.3528 20.4659 20.6661 19.771 19.8618 19.1206C19.5213 18.8453 20.1431 19.117 20.2362 19.1551C20.7759 19.376 21.2598 19.7065 21.8088 19.9077C22.6598 20.2196 23.5185 20.5375 24.3129 20.976C24.46 21.0572 25.2406 21.4335 25.1795 21.6388C25.1342 21.791 23.8206 20.6401 23.7501 20.5793C23.3105 20.1998 22.7516 19.9692 22.3414 19.5627C22.0148 19.2391 21.9282 19.2181 22.4681 19.5251C23.4451 20.0809 24.5788 20.3706 25.5972 20.8481C26.1328 21.0993 26.7724 21.3214 27.2437 21.6896C27.5834 21.9551 27.7947 22.2766 28.1723 22.4813C28.529 22.6747 28.7785 22.7844 29.0878 23.0583C29.5545 23.4715 29.8363 23.4991 30.3444 23.7653C30.8682 24.0397 31.7321 24.6978 32.3223 24.7522C32.9242 24.8078 33.6993 26.4121 33.9043 26.8275C34.4293 27.8913 34.9953 28.6186 34.8826 29.8404C34.8476 30.2203 34.8125 30.6002 34.7775 30.9801C34.7406 31.3799 34.8318 32.2088 34.569 32.529C33.9483 33.285 33.1531 33.4122 32.2526 33.4319C30.973 33.4599 29.6542 33.1408 28.4372 32.7845C27.2725 32.4435 26.5395 31.7927 25.5335 31.1539C25.346 31.0348 24.3437 30.3012 24.2237 30.401C24.08 30.5204 24.2495 30.8214 24.0757 30.9374C23.5833 31.266 22.629 30.4348 22.321 30.2009C20.8793 29.106 19.7121 27.7082 18.3223 26.5564C17.8048 26.1276 17.2961 25.5648 16.6592 25.3604C16.5468 25.3243 16.125 25.0301 16.4276 25.2898C17.1168 25.8811 17.8349 26.4381 18.5252 27.0267C18.848 27.3018 19.6557 28.3001 19.6139 28.7526C19.5516 29.4289 18.4879 27.2484 19.0051 26.8082C19.5637 26.3327 20.1573 25.6681 20.8118 26.2687C21.0874 26.5217 22.0262 28.015 21.0308 27.4547C20.7925 27.3206 20.0666 26.7518 20.1812 27.4092C20.2459 27.7807 20.4465 28.1482 20.6076 28.483C21.0909 29.4876 21.5171 30.3742 22.1309 31.2835C22.6892 32.1105 24.2316 32.0013 24.923 32.7889C25.6627 33.6314 26.6032 33.9782 27.6939 34.0788C29.833 34.2761 31.8388 35.4653 33.9432 34.5073C34.7023 34.1617 34.9344 33.1785 35.2663 32.4455C35.6111 31.684 35.8719 30.686 35.7405 29.7964C35.6315 29.0584 35.5043 28.18 35.1039 27.5292C34.9739 27.3179 35.0918 26.8895 34.9288 26.7577C34.4167 26.3437 35.4533 27.624 35.5817 27.7785C36.2021 28.5249 36.6588 29.432 36.6012 30.434C36.5631 31.0964 36.479 31.6541 35.7762 31.9014C35.3181 32.0626 34.5111 32.4384 33.9994 32.2958C33.2438 32.0852 34.1608 28.052 34.2218 27.3904C34.2667 26.904 34.5485 26.1716 33.9861 25.9401C33.0641 25.5606 32.2204 24.9047 31.4266 24.3166C31.005 24.0043 30.5024 23.8089 30.1532 23.4357C29.893 23.1577 30.7782 23.7065 31.1579 23.7582C32.0845 23.8844 32.2421 24.3253 32.6586 25.1117C33.096 25.9374 32.744 26.8584 32.5649 27.7302C32.4933 28.0788 32.4564 29.3776 32.0932 29.6406C31.5886 30.0061 30.2165 27.4561 30.1031 27.2733C29.4402 26.2056 28.7116 25.136 28.1288 24.0207C28.0972 23.9602 28.0405 23.7647 28.0477 23.8326C28.0742 24.0831 28.2309 24.4403 28.3256 24.6464C28.8067 25.6931 29.7195 26.6761 30.6721 27.334C31.1481 27.6626 31.6891 27.7453 31.6867 26.9267C31.6809 24.9844 29.1738 23.7112 27.5762 23.2473C26.5062 22.9366 27.6072 23.848 27.9718 24.1212C28.406 24.4466 29.0239 25.0228 29.5996 25.0759C29.7944 25.0938 28.5201 24.27 28.4217 24.2284C28.3669 24.2052 26.3211 23.503 26.289 23.8511C26.2254 24.5412 27.761 25.2312 26.6268 24.8182C25.001 24.226 26.6747 26.6122 27.0812 27.1014C27.5006 27.6059 29.471 29.044 27.5862 28.1249C26.6097 27.6488 25.7132 27.114 24.9158 26.368C24.7693 26.231 23.3965 24.7945 24.4795 25.4904C26.4488 26.7559 27.8452 28.9239 29.3015 30.7132C29.6304 31.1174 29.7729 31.4627 30.3278 31.5139C30.7423 31.5521 31.2576 31.534 31.6168 31.7805C31.7354 31.862 31.9264 32.3368 31.7536 32.4335C31.2 32.7434 30.1186 32.1526 29.633 31.926C29.0033 31.6322 28.3732 31.1859 27.6711 31.1212C27.2 31.0777 27.4286 31.6531 27.444 31.6256C27.6016 31.3439 27.5485 30.8486 27.5786 30.5215" stroke="white" stroke-width="3" stroke-linecap="round"/>
<path d="M21.131 29.9272C20.8972 30.0664 20.0467 29.8788 20.2308 30.0741C20.4899 30.349 20.9109 30.4764 21.1965 30.8199" stroke="white" stroke-width="3" stroke-linecap="round"/>
<path d="M16.4652 11.6159C17.0619 12.3338 17.2797 13.5424 17.5208 14.4143C17.8186 15.4915 18.1616 15.9173 19.2389 16.5267C20.3024 17.1283 22.1729 17.3706 22.1341 19.0514C22.107 20.2223 19.8297 20.5108 18.9421 20.5468C17.9182 20.5884 15.8556 20.8253 14.9456 20.2604C14.6522 20.0782 13.5282 19.6844 13.4161 19.3969C13.2877 19.0675 13.3495 18.5829 13.277 18.2346C13.1506 17.6276 12.9413 17.0417 12.7686 16.4473C12.6167 15.9243 12.5539 15.419 12.3176 14.9279" stroke="white" stroke-width="3" stroke-linecap="round"/>
<path d="M10.5632 11.5152C10.4336 12.9206 10.3985 11.6181 10.3107 11.0486" stroke="white" stroke-width="3" stroke-linecap="round"/>
<path d="M15.5902 8.2841C14.8629 7.73055 15.1512 6.59503 14.5548 5.98015C13.9434 5.34996 13.3535 4.67894 12.4575 4.59632C11.8437 4.53972 11.4978 4.5872 11.43 5.32256C11.3782 5.88359 11.1969 6.61718 11.4083 7.15958C11.9058 8.4356 13.0525 5.69469 12.9078 4.96623C12.6958 3.89903 11.6769 4.24862 10.974 4.74687C10.5581 5.0417 10.6906 5.58483 10.6237 6.05278C10.5727 6.41027 10.0618 7.33931 10.1368 6.52511C10.1753 6.10852 10.4438 5.45584 10.8408 5.30107C11.4515 5.06304 10.6988 5.0333 10.3968 5.21908C9.41091 5.82566 9.54391 6.54482 9.44261 7.64332C9.41084 7.98794 9.37906 8.33256 9.34728 8.67719C9.29994 9.1905 9.75518 9.98909 9.44563 10.4596C9.42421 10.4922 9.39397 8.17079 9.24744 9.7599C9.18815 10.4029 9.00731 11.0255 8.9275 11.6269C8.84027 12.2842 9.35709 13.0266 9.48363 13.6978C9.53995 13.9965 9.87646 14.819 10.0956 14.9857C10.1954 15.0617 10.7558 15.9333 10.6657 15.925C10.5094 15.9105 10.2411 14.2046 10.1213 13.9947C9.97612 13.7405 9.60442 12.8996 9.57608 12.6062C9.48135 11.6252 8.88009 10.5384 8.96413 9.62704C9.00647 9.16791 8.98033 8.64019 9.10439 8.19503C9.17463 7.94303 9.83481 7.23485 9.72339 7.44754C9.37735 8.10808 9.13675 7.75507 9.19009 7.1767C9.23293 6.71204 9.74511 6.25832 10.1706 6.15878" stroke="white" stroke-width="3" stroke-linecap="round"/>
</svg>
