<svg width="49" height="59" viewBox="0 0 49 59" fill="none" xmlns="http://www.w3.org/2000/svg">
<path d="M12.4891 18.8448C11.5315 19.2916 10.8351 19.9041 10.0199 20.5843C9.67904 20.8687 9.75863 21.3414 9.8699 21.7074C10.1086 22.4925 10.012 23.3648 10.1325 24.1794C10.2301 24.8395 10.1488 25.4839 10.2371 26.1416C10.3094 26.6806 10.6373 27.177 10.7374 27.7023C10.965 28.8971 11.8063 29.9166 12.3075 31.0258C12.5999 31.6729 13.1492 32.1841 13.4212 32.8411C13.8794 33.948 14.3614 35.1433 14.9353 36.1935C16.3162 38.7209 17.9138 41.1088 19.7613 43.323C20.5797 44.3038 21.3421 45.4046 22.2571 46.2929C22.794 46.814 23.5998 47.1999 24.2211 47.6214C24.8817 48.0696 25.5543 48.4647 26.2822 48.7887C27.6037 49.377 28.9421 49.9193 30.318 50.2509C31.7375 50.593 33.283 51.0132 34.7395 50.6695C35.2917 50.5392 35.8722 50.6758 36.4293 50.6763C36.9451 50.6769 37.4017 50.4888 37.9008 50.4109C38.7845 50.2729 39.4353 49.5883 40.1759 49.1541C41.0378 48.6489 40.921 48.4811 41.2016 47.532C41.4937 46.5439 42.0162 45.3498 42.0599 44.3209C42.1066 43.2212 41.7946 42.4341 41.3012 41.4787C40.7746 40.459 39.655 39.4844 38.9097 38.5911C38.3407 37.9093 37.8127 37.1959 37.1188 36.637C35.8618 35.6246 34.2634 35.0585 32.7523 34.5863C31.1518 34.0862 29.6379 33.4743 28.1293 32.7408C27.3483 32.361 26.5509 32.0705 25.9035 31.4615C25.0856 30.6922 24.0951 30.0404 23.3686 29.1924C22.5143 28.1951 21.6852 27.1749 20.8438 26.1665C19.9706 25.12 19.0197 24.1409 18.5501 22.8408C18.2411 21.9851 17.885 21.011 17.4754 20.2179C17.1685 19.6235 16.9305 18.9775 16.4975 18.4586C15.8764 17.7142 15.3474 17.1678 14.3033 17.3667C13.9439 17.4351 13.5507 17.382 13.1847 17.3823C12.9197 17.3824 12.4926 17.8795 12.2994 18.0407C11.6306 18.5987 10.8231 19.391 11.1305 20.3348C11.6543 21.9431 12.3967 23.3474 13.4984 24.6678C14.4774 25.8411 15.4563 27.0143 16.4353 28.1876C17.0723 28.9511 17.7093 29.7146 18.3464 30.478C18.5513 30.7236 18.5389 30.7336 18.2691 30.2039C17.9386 29.5549 16.3254 26.4789 16.2317 26.299C15.837 25.5411 14.6642 23.316 14.2021 22.3074C14.1424 22.177 13.7939 21.677 14.1326 21.7863C14.9752 22.0581 15.909 23.6677 16.3821 24.3647C16.9911 25.2621 17.2805 26.3491 17.8731 27.2196C18.9363 28.7816 19.3151 30.8478 20.0725 32.5575C20.9642 34.57 22.4236 36.4364 23.6791 38.2362C25.4024 40.7066 27.5749 43.2787 30.2393 44.7741C31.1988 45.3127 28.947 42.9905 28.2421 42.1456C26.2506 39.7588 24.2591 37.3721 22.2676 34.9853C21.4853 34.0478 20.6645 33.1376 19.9961 32.1134C19.3514 31.1257 18.8197 30.0972 18.1178 29.1361C17.8095 28.7141 16.7157 26.8231 16.2889 28.0335C15.4105 30.5244 15.1215 33.5969 16.6862 35.8464C19.1434 39.3791 22.7533 41.7331 26.5558 43.6061C27.0614 43.8551 27.7456 44.2456 28.3267 44.3829C29.152 44.5778 27.4381 42.9318 26.8992 42.277C25.3013 40.3354 23.6937 38.3961 22.0066 36.5307C21.7166 36.2101 19.0136 33.2343 20.9252 35.8113C22.6089 38.0812 24.3611 40.2983 26.0891 42.5341C27.2795 44.0744 28.38 45.8637 29.9236 47.087C30.4634 47.5148 31.1497 47.8922 31.8574 47.8882C32.6093 47.884 32.5087 46.4524 32.5054 46.0377C32.4893 44.0315 31.8151 42.3283 30.7675 40.6443C30.7306 40.5849 28.8537 38.1384 30.3229 39.8124C31.4623 41.1106 32.6226 42.3908 33.7776 43.6752C34.7983 44.8101 35.7889 46.0081 37.0314 46.9126C37.5224 47.2701 39.0973 48.3562 38.4838 46.8592C37.9727 45.6121 35.2907 42.5197 36.1542 43.5546C36.4336 43.8895 37.1623 45.2047 37.6519 44.4524C38.5559 43.0633 36.0825 40.348 35.3834 39.4483C34.3093 38.0661 33.1495 36.4041 31.6998 35.3754C31.4472 35.1961 31.1475 35.0965 30.8746 35.262C30.1708 35.6886 29.3747 35.5969 28.5892 35.5026C27.6841 35.394 26.7888 35.2235 25.8856 35.1031C25.793 35.0907 25.0796 34.8963 25.2558 35.1919C25.798 36.1014 26.6483 36.9734 27.316 37.7679C28.0302 38.6176 29.1658 39.9562 29.9389 40.7832C30.2795 41.1475 31.1129 42.2652 31.0643 41.7689C31.0426 41.5465 30.8442 41.3787 30.7127 41.198C30.3971 40.7644 30.0607 40.3463 29.7246 39.9284C28.8632 38.8572 27.1286 36.7825 26.2828 35.7607C25.234 34.4936 24.2508 33.2427 23.3773 31.894" stroke="white" stroke-width="3" stroke-linecap="round"/>
<path d="M11.0838 20.056C10.6871 19.999 10.6517 20.0477 10.3385 20.3089C10.1825 20.4391 9.97493 20.8091 9.86855 20.4825C9.75013 20.1189 11.3308 18.9265 11.6498 18.7367C11.8196 18.6357 12.227 18.474 12.4287 18.524C12.6986 18.5908 12.8118 18.8596 12.5841 19.0295C12.2237 19.2987 11.6469 19.5944 11.2031 19.6422C10.9019 19.6747 10.3601 19.8157 10.3755 19.3217C10.3846 19.032 10.4823 18.7629 10.6873 18.5492C11.4108 17.7952 12.5593 16.6719 13.6566 16.8026C13.7551 16.8144 14.1751 17.0011 14.237 17.0561C14.5032 17.2927 14.7091 17.3272 14.9532 17.6198C15.3396 18.0829 16.0146 19.2277 16.126 17.9938C16.206 17.1081 14.868 16.0227 14.0717 15.8346C12.7317 15.5181 11.5298 16.9499 11.3546 18.17C11.3221 18.3969 11.609 18.6041 11.6995 18.8045C11.7759 18.9734 11.8602 19.1396 11.9409 19.3066C12.1119 19.6603 11.6734 18.541 11.7139 18.1503C11.7904 17.413 12.1484 16.8438 12.2096 16.1655C12.2455 15.7678 11.5385 16.527 11.4591 16.6415C11.4135 16.7072 11.2915 16.7795 11.372 16.8645C11.5119 17.0124 11.9094 16.3267 11.9907 16.2389C12.3015 15.9034 12.4869 15.5653 12.8497 15.2626C13.2024 14.9683 13.608 15.7128 13.8011 15.9443" stroke="white" stroke-width="3" stroke-linecap="round"/>
<path d="M11.8377 28.034C11.7839 28.6297 11.8633 29.0616 11.9959 29.6235C12.0777 29.9704 12.3817 30.2899 12.4075 30.6326C12.4342 30.9877 12.7244 31.3874 12.7997 31.774C12.8618 32.0925 12.908 32.325 13.0783 32.6073C13.707 33.6498 14.4431 34.3985 15.2028 35.309" stroke="white" stroke-width="3" stroke-linecap="round"/>
<path d="M13.6836 19.14C14.2928 19.6327 14.5607 20.2265 14.8953 20.9258C15.4338 22.051 16.1044 23.0829 16.7071 24.1711C16.9739 24.6527 17.368 25.2821 17.4176 25.8456C17.4798 26.5512 16.6903 24.6294 16.3502 24.008C15.177 21.8648 13.7629 19.661 12.9179 17.3582C12.8702 17.2282 12.6396 15.8738 12.9914 16.2583C14.2155 17.5962 15.1959 19.421 16.0791 20.9977C16.1223 21.075 17.2599 23.3047 16.5999 22.8128C15.7835 22.2043 15.1596 21.2348 14.6487 20.3729C14.3852 19.9285 13.8568 18.4648 14.036 18.9493C15.0632 21.7276 16.8161 24.2161 17.8118 27.0165C18.0927 27.8063 18.786 28.6017 19.2795 29.2536C19.3332 29.3245 20.5077 30.7276 19.9393 29.9655C19.0817 28.8157 18.2905 27.6181 17.5141 26.4125C17.2968 26.0749 17.0738 25.6095 17.6083 26.1979C18.4546 27.1296 19.1526 28.2264 19.8647 29.2611C20.3889 30.0227 20.8473 30.8362 21.4095 31.5704C21.8515 32.1477 21.2259 31.6467 21.0206 31.4509C19.4087 29.9139 17.9334 27.8014 16.772 25.8883C16.613 25.6264 16.4408 25.3209 16.3203 25.0376C16.1003 24.5201 17.4157 25.3866 17.8554 25.7371C19.4996 27.0481 21.2162 28.5278 22.5835 30.1349C22.8943 30.5002 23.1274 30.7807 23.3216 31.2074C23.6035 31.8268 22.1343 30.5343 21.5891 30.1269C20.5996 29.3874 19.585 28.4513 18.3621 28.1088C17.3275 27.8191 19.0932 30.4009 19.0986 30.4088C20.1497 31.9117 21.2757 33.4177 22.5087 34.778C23.0692 35.3963 23.6695 35.5182 24.3542 35.9433C24.7311 36.1772 25.4729 36.9663 24.5747 35.9729C23.4268 34.7033 22.0821 33.6061 20.8265 32.4467C19.3866 31.1171 21.4159 32.9308 21.679 33.1856C22.9669 34.4327 24.3619 35.6749 25.5375 37.0289C26.1708 37.7582 23.7575 36.8983 23.6647 36.8655C22.5003 36.4542 21.3933 35.9603 20.3827 35.2422C20.3037 35.1861 18.7339 33.6482 19.32 34.2608C20.5775 35.5748 21.909 36.8795 23.0088 38.3302C23.6205 39.1369 24.1881 40.1996 22.8776 38.6436C20.4669 35.7812 18.1928 32.729 16.2307 29.5398C15.4249 28.23 17.9394 31.4163 18.0106 31.5174C19.2544 33.2837 20.2884 35.2075 21.2396 37.1441C22.1306 38.9579 21.5482 38.096 20.7217 37.0126C20.4534 36.6609 17.831 33.7758 18.1055 33.3118C18.3014 32.9808 18.6586 33.8519 18.8825 34.1646C19.6274 35.2048 20.2853 36.3126 20.9752 37.3894C21.3724 38.0093 21.5746 38.3029 21.9223 38.9182C22.0222 39.0949 22.1165 39.2747 22.2075 39.456C22.3952 39.8297 22.2794 39.6469 22.1857 39.4912C21.2664 37.964 20.2656 36.5413 19.1646 35.1392C18.3187 34.062 18.1154 33.7108 18.8877 35.3183C19.6956 36.9999 21.0202 38.8438 21.4245 40.6858C21.4894 40.9814 21.1691 40.6048 21.1371 40.5756C20.1976 39.7204 19.324 38.7685 18.5106 37.7945C18.1288 37.3373 17.6463 36.7099 17.3204 36.1782C17.08 35.786 17.1761 35.7185 17.536 36.0585C18.6912 37.15 19.5034 38.5576 20.2467 39.9448C20.7921 40.9626 22.2494 44.0607 21.9985 42.9335C21.8744 42.3764 21.5103 41.9015 21.2475 41.3949C20.052 39.0899 18.8208 36.8028 17.585 34.5193C16.6442 32.7809 16.6535 32.8097 15.7866 31.2286C15.4602 30.6333 14.277 29.0262 14.8172 29.4374C15.1273 29.6734 15.2662 30.0745 15.4917 30.3923C16.4884 31.7971 17.4783 33.2005 18.3704 34.6754C19.2016 36.0497 21.7432 40.1072 20.6773 38.9057C18.3394 36.2706 16.934 32.7206 14.9307 29.8198C14.8772 29.7423 14.7343 29.5045 14.8053 29.5665C14.9239 29.67 15.2067 30.1198 15.2338 30.164C15.781 31.0563 16.5728 32.2817 16.5745 33.3752C16.5754 34.0072 14.2897 30.4792 14.2609 30.4276C13.6864 29.3993 12.9024 27.8785 12.3808 26.8133C12.3323 26.7141 11.1668 24.6758 11.3285 24.3076C11.4496 24.0317 11.7411 24.7505 11.9061 25.0025C12.5935 26.0526 13.2083 27.1529 13.7908 28.2639C13.8666 28.4085 15.1831 31.2697 14.5077 29.5669C14.0194 28.3361 13.5586 27.1038 12.9655 25.9186C12.3387 24.6663 13.3839 25.8206 13.6996 26.2281C14.1401 26.797 14.7001 27.5783 14.8472 28.3055C15.1777 29.9401 13.572 25.2223 13.007 23.6532C12.86 23.2451 12.6772 22.8466 12.581 22.4236C12.5529 22.3 12.8589 22.3647 12.9608 22.44C13.9712 23.1864 14.6016 24.4116 15.2986 25.427C15.9132 26.3222 14.7863 23.9891 14.7581 23.9263C14.438 23.2127 14.2099 22.4087 13.7774 21.7527C13.6253 21.5219 12.8337 19.5337 12.6951 19.7743C12.3976 20.2907 12.5917 21.3555 12.6672 21.8921C12.8502 23.1927 13.3173 24.4815 13.8722 25.6674C14.0901 26.1331 14.3432 26.2344 14.7522 26.5112C16.0415 27.3834 17.1726 28.5091 18.3737 29.4956C20.1445 30.95 21.8196 32.3388 23.9437 33.134C24.7575 33.4387 25.39 33.8881 26.1414 34.3132C26.5884 34.5661 27.971 35.0264 27.4634 35.1047C26.5879 35.2397 25.2451 34.392 24.5521 33.9992C23.5156 33.4118 22.7377 32.6246 21.8266 31.8879C21.4409 31.576 22.1453 31.8838 22.2508 31.927C22.8621 32.1772 23.4102 32.5515 24.0322 32.7795C24.9962 33.1328 25.9688 33.4929 26.8687 33.9896C27.0354 34.0816 27.9196 34.5078 27.8503 34.7405C27.799 34.9128 26.3111 33.6092 26.2312 33.5403C25.7333 33.1104 25.1001 32.8492 24.6355 32.3887C24.2656 32.0221 24.1674 31.9983 24.7789 32.3461C25.8857 32.9757 27.1699 33.3038 28.3235 33.8448C28.9303 34.1293 29.6548 34.3809 30.1886 34.798C30.5735 35.0987 30.8129 35.4629 31.2405 35.6948C31.6446 35.9139 31.9273 36.0382 32.2777 36.3484C32.8063 36.8165 33.1255 36.8478 33.7011 37.1493C34.2944 37.4601 35.273 38.2056 35.9416 38.2673C36.6234 38.3301 37.5015 40.1476 37.7336 40.618C38.3283 41.8231 38.9694 42.6469 38.8418 44.031C38.8021 44.4613 38.7624 44.8917 38.7227 45.322C38.681 45.7749 38.7843 46.7138 38.4866 47.0765C37.7835 47.933 36.8827 48.0771 35.8626 48.0994C34.4131 48.131 32.9192 47.7696 31.5407 47.366C30.2213 46.9797 29.3909 46.2426 28.2514 45.5189C28.039 45.384 26.9037 44.553 26.7677 44.666C26.605 44.8012 26.7969 45.1422 26.6001 45.2736C26.0423 45.6459 24.9613 44.7043 24.6124 44.4393C22.9793 43.1991 21.6571 41.6156 20.0827 40.311C19.4966 39.8252 18.9202 39.1877 18.1988 38.9561C18.0715 38.9153 17.5937 38.582 17.9365 38.8762C18.7172 39.546 19.5306 40.177 20.3126 40.8437C20.6782 41.1554 21.5932 42.2862 21.5459 42.7988C21.4752 43.5649 20.2704 41.0949 20.8562 40.5962C21.4889 40.0576 22.1614 39.3047 22.9027 39.9851C23.215 40.2717 24.2785 41.9632 23.1508 41.3286C22.8809 41.1766 22.0586 40.5323 22.1884 41.277C22.2617 41.6979 22.489 42.1141 22.6714 42.4934C23.219 43.6313 23.7017 44.6357 24.397 45.6657C25.0294 46.6025 26.7767 46.4788 27.5598 47.3709C28.3978 48.3254 29.4631 48.7182 30.6987 48.8322C33.1217 49.0556 35.3938 50.4028 37.7777 49.3176C38.6376 48.9261 38.9005 47.8124 39.2765 46.982C39.6671 46.1193 39.9625 44.9888 39.8136 43.9811C39.6901 43.1452 39.5461 42.1501 39.0925 41.4129C38.9453 41.1736 39.0788 40.6883 38.8941 40.539C38.3141 40.0701 39.4883 41.5203 39.6338 41.6953C40.3365 42.5408 40.8539 43.5684 40.7886 44.7034C40.7454 45.4538 40.6502 46.0855 39.8541 46.3656C39.3351 46.5483 38.421 46.974 37.8413 46.8124C36.9855 46.5739 38.0242 42.0051 38.0933 41.2557C38.1441 40.7048 38.4634 39.8751 37.8263 39.6129C36.7818 39.183 35.8262 38.44 34.9269 37.7738C34.4494 37.4201 33.8801 37.1987 33.4844 36.7759C33.1897 36.461 34.1925 37.0827 34.6225 37.1412C35.6722 37.2842 35.8507 37.7836 36.3226 38.6744C36.818 39.6097 36.4193 40.6531 36.2164 41.6406C36.1353 42.0355 36.0935 43.5067 35.6821 43.8047C35.1105 44.2187 33.5562 41.3301 33.4277 41.123C32.6768 39.9136 31.8515 38.702 31.1913 37.4386C31.1555 37.3701 31.0912 37.1486 31.0994 37.2256C31.1294 37.5093 31.307 37.914 31.4143 38.1474C31.9592 39.333 32.9932 40.4466 34.0723 41.1918C34.6114 41.5641 35.2243 41.6577 35.2216 40.7305C35.215 38.5302 32.3751 37.088 30.5653 36.5625C29.3533 36.2106 30.6005 37.243 31.0134 37.5524C31.5053 37.921 32.2053 38.5737 32.8574 38.6339C33.078 38.6542 31.6346 37.721 31.523 37.6738C31.4611 37.6476 29.1436 36.8522 29.1073 37.2465C29.0352 38.0282 30.7746 38.8099 29.4898 38.3419C27.6482 37.6712 29.5441 40.3742 30.0046 40.9283C30.4797 41.4998 32.7117 43.1288 30.5766 42.0877C29.4705 41.5484 28.4549 40.9426 27.5516 40.0976C27.3857 39.9424 25.8306 38.3151 27.0574 39.1034C29.2882 40.537 30.87 42.9928 32.5196 45.0197C32.8923 45.4776 33.0537 45.8687 33.6822 45.9267C34.1518 45.97 34.7356 45.9495 35.1423 46.2287C35.2768 46.321 35.4931 46.8589 35.2973 46.9684C34.6703 47.3195 33.4452 46.6502 32.8952 46.3935C32.1819 46.0607 31.4681 45.5551 30.6728 45.4818C30.1391 45.4326 30.3981 46.0844 30.4155 46.0533C30.5941 45.7341 30.5339 45.173 30.5681 44.8025" stroke="white" stroke-width="3" stroke-linecap="round"/>
<path d="M23.2643 44.1294C22.9994 44.287 22.036 44.0746 22.2446 44.2958C22.5381 44.6071 23.015 44.7514 23.3385 45.1406" stroke="white" stroke-width="3" stroke-linecap="round"/>
<path d="M17.9793 23.3869C18.6552 24.2001 18.9018 25.5692 19.1749 26.5568C19.5123 27.777 19.9008 28.2593 21.1212 28.9497C22.3259 29.6311 24.4447 29.9056 24.4008 31.8096C24.3701 33.1359 21.7904 33.4627 20.785 33.5035C19.6251 33.5507 17.2887 33.8191 16.2579 33.1791C15.9255 32.9727 14.6523 32.5267 14.5253 32.2009C14.3799 31.8278 14.4498 31.2789 14.3677 30.8844C14.2245 30.1967 13.9874 29.5331 13.7918 28.8597C13.6197 28.2673 13.5486 27.6949 13.2809 27.1386" stroke="white" stroke-width="3" stroke-linecap="round"/>
<path d="M11.2934 23.2724C11.1466 24.8644 11.1068 23.3889 11.0073 22.7438" stroke="white" stroke-width="3" stroke-linecap="round"/>
<path d="M16.988 19.6126C16.1641 18.9855 16.4908 17.6992 15.8151 17.0027C15.1226 16.2888 14.4543 15.5287 13.4393 15.4351C12.7441 15.371 12.3522 15.4248 12.2754 16.2578C12.2168 16.8933 12.0114 17.7243 12.2509 18.3387C12.8143 19.7842 14.1133 16.6793 13.9494 15.8542C13.7092 14.6453 12.5551 15.0413 11.7589 15.6057C11.2878 15.9397 11.4378 16.5549 11.3621 17.085C11.3042 17.4899 10.7255 18.5423 10.8106 17.62C10.8541 17.1481 11.1583 16.4088 11.608 16.2335C12.2997 15.9638 11.4471 15.9301 11.1051 16.1406C9.98826 16.8277 10.1389 17.6424 10.0242 18.8867C9.98817 19.2771 9.95217 19.6675 9.91617 20.0578C9.86255 20.6393 10.3782 21.5439 10.0276 22.0769C10.0033 22.1138 9.96907 19.4842 9.80308 21.2843C9.73591 22.0127 9.53106 22.7179 9.44066 23.3992C9.34184 24.1438 9.92728 24.9847 10.0706 25.7451C10.1344 26.0834 10.5156 27.0151 10.7638 27.204C10.8769 27.29 11.5117 28.2773 11.4097 28.2679C11.2326 28.2516 10.9287 26.3192 10.7929 26.0814C10.6285 25.7934 10.2075 24.8409 10.1754 24.5085C10.068 23.3972 9.38696 22.1662 9.48216 21.1338C9.53012 20.6137 9.5005 20.0159 9.64104 19.5117C9.7206 19.2262 10.4684 18.424 10.3422 18.6649C9.95024 19.4132 9.6777 19.0133 9.73811 18.3581C9.78665 17.8318 10.3668 17.3178 10.8488 17.2051" stroke="white" stroke-width="3" stroke-linecap="round"/>
<ellipse cx="10.0002" cy="3.5" rx="3" ry="2.5" fill="white"/>
</svg>
