<svg width="70" height="70" viewBox="0 0 70 70" fill="none" xmlns="http://www.w3.org/2000/svg">
<path d="M17.9593 11.8201C16.5531 12.4762 15.5305 13.3756 14.3334 14.3744C13.8329 14.792 13.9498 15.4862 14.1132 16.0237C14.4636 17.1764 14.3219 18.4573 14.4988 19.6535C14.6421 20.6228 14.5227 21.5691 14.6524 22.5348C14.7586 23.3262 15.24 24.0552 15.387 24.8265C15.7212 26.581 16.9566 28.078 17.6926 29.7068C18.122 30.657 18.9285 31.4076 19.3279 32.3723C20.0007 33.9977 20.7085 35.7529 21.5512 37.295C23.579 41.0062 25.9248 44.5126 28.6377 47.764C29.8394 49.2042 30.959 50.8206 32.3026 52.1249C33.0909 52.8902 34.2741 53.4569 35.1865 54.0758C36.1565 54.7338 37.1442 55.3141 38.213 55.7899C40.1535 56.6537 42.1188 57.45 44.1392 57.9369C46.2235 58.4393 48.4931 59.0562 50.6317 58.5516C51.4427 58.3603 52.2949 58.5608 53.1131 58.5616C53.8704 58.5624 54.5409 58.2863 55.2739 58.1718C56.5714 57.9692 57.527 56.964 58.6146 56.3264C59.8802 55.5846 59.7087 55.3381 60.1207 53.9445C60.5497 52.4935 61.3168 50.7402 61.381 49.2293C61.4496 47.6145 60.9915 46.4587 60.267 45.0558C59.4937 43.5584 57.8497 42.1274 56.7552 40.8157C55.9198 39.8144 55.1445 38.767 54.1254 37.9462C52.2798 36.4597 49.9326 35.6284 47.7138 34.935C45.3635 34.2006 43.1405 33.3022 40.9254 32.2251C39.7785 31.6674 38.6076 31.2407 37.6569 30.3465C36.4559 29.2169 35.0014 28.2598 33.9347 27.0146C32.6802 25.5502 31.4628 24.052 30.2273 22.5714C28.9451 21.0346 27.5487 19.597 26.8592 17.688C26.4054 16.4314 25.8825 15.001 25.2811 13.8364C24.8304 12.9637 24.4809 12.0149 23.8452 11.253C22.9332 10.1599 22.1563 9.35759 20.6232 9.64967C20.0955 9.75021 19.5181 9.67223 18.9806 9.67256C18.5915 9.67281 17.9643 10.4027 17.6807 10.6394C16.6987 11.4588 15.5129 12.6222 15.9642 14.0081C16.7334 16.3697 17.8235 18.4318 19.4413 20.3707C20.8788 22.0935 22.3163 23.8163 23.7538 25.5391C24.6892 26.6602 25.6246 27.7813 26.5601 28.9024C26.861 29.263 26.8427 29.2777 26.4466 28.4999C25.9613 27.5469 23.5925 23.0301 23.4549 22.766C22.8753 21.653 21.1532 18.3856 20.4747 16.9047C20.3869 16.7132 19.8752 15.9789 20.3726 16.1394C21.6098 16.5386 22.981 18.9021 23.6757 19.9256C24.5699 21.2433 24.995 22.8394 25.865 24.1177C27.4263 26.4114 27.9825 29.4454 29.0948 31.9559C30.4041 34.9111 32.5471 37.6517 34.3907 40.2945C36.9211 43.922 40.1113 47.699 44.0236 49.8948C45.4326 50.6857 42.1261 47.2758 41.0909 46.0351C38.1666 42.5304 35.2423 39.0256 32.318 35.5209C31.1693 34.1442 29.964 32.8077 28.9824 31.3038C28.0358 29.8534 27.2551 28.3432 26.2244 26.932C25.7718 26.3122 24.1655 23.5355 23.5388 25.3129C22.2491 28.9705 21.8246 33.4821 24.1222 36.7853C27.7305 41.9728 33.0312 45.4293 38.6147 48.1797C39.3572 48.5454 40.3619 49.1188 41.2151 49.3203C42.4271 49.6065 39.9104 47.1895 39.1191 46.228C36.7727 43.377 34.4121 40.5292 31.9348 37.7902C31.5089 37.3194 27.5398 32.9497 30.3468 36.7338C32.8191 40.0669 35.392 43.3225 37.9294 46.6056C39.6774 48.8673 41.2934 51.4947 43.56 53.291C44.3527 53.9193 45.3605 54.4733 46.3997 54.4676C47.5037 54.4614 47.3561 52.3592 47.3512 51.7502C47.3276 48.8043 46.3375 46.3033 44.7993 43.8306C44.745 43.7433 41.989 40.1509 44.1464 42.609C45.8196 44.5153 47.5233 46.3952 49.2194 48.2811C50.7181 49.9476 52.1727 51.7068 53.9972 53.035C54.7182 53.5599 57.0308 55.1547 56.1299 52.9565C55.3794 51.1253 51.4412 46.5845 52.7091 48.104C53.1194 48.5958 54.1893 50.527 54.9082 49.4224C56.2357 47.3826 52.6039 43.3955 51.5772 42.0744C50 40.0448 48.297 37.6043 46.1683 36.0937C45.7974 35.8305 45.3573 35.6842 44.9565 35.9272C43.9231 36.5537 42.754 36.4189 41.6006 36.2805C40.2716 36.121 38.957 35.8707 37.6306 35.6938C37.4947 35.6757 36.4471 35.3902 36.7058 35.8243C37.502 37.1598 38.7506 38.4403 39.7311 39.6068C40.7798 40.8545 42.4473 42.8201 43.5826 44.0346C44.0826 44.5695 45.3065 46.2107 45.2351 45.4819C45.2031 45.1553 44.9119 44.9089 44.7188 44.6436C44.2554 44.0069 43.7614 43.3929 43.2679 42.7793C42.003 41.2064 39.456 38.1599 38.214 36.6595C36.6738 34.7989 35.2301 32.9621 33.9475 30.9817" stroke="white" stroke-width="3" stroke-linecap="round"/>
<path d="M15.8957 13.5989C15.3131 13.5153 15.2611 13.5867 14.8013 13.9704C14.5722 14.1616 14.2674 14.7049 14.1112 14.2252C13.9373 13.6913 16.2584 11.9403 16.7268 11.6616C16.976 11.5133 17.5743 11.276 17.8705 11.3493C18.2668 11.4474 18.433 11.8421 18.0988 12.0917C17.5695 12.4869 16.7226 12.9211 16.0708 12.9913C15.6286 13.039 14.8329 13.2461 14.8556 12.5207C14.8689 12.0954 15.0125 11.7001 15.3135 11.3864C16.3759 10.2792 18.0623 8.6297 19.6736 8.8217C19.8182 8.83893 20.4349 9.11314 20.5258 9.19393C20.9167 9.54135 21.2191 9.59201 21.5775 10.0216C22.1449 10.7016 23.1361 12.3827 23.2997 10.5708C23.4171 9.27023 21.4524 7.67646 20.2831 7.4003C18.3154 6.93557 16.5506 9.038 16.2934 10.8296C16.2455 11.1627 16.6669 11.467 16.7998 11.7612C16.912 12.0093 17.0357 12.2534 17.1543 12.4986C17.4054 13.0178 16.7614 11.3744 16.8209 10.8007C16.9332 9.71796 17.4589 8.88209 17.5488 7.8862C17.6016 7.30215 16.5634 8.41693 16.4468 8.58506C16.3798 8.68162 16.2006 8.78769 16.3188 8.91254C16.5244 9.12979 17.108 8.12279 17.2274 7.99388C17.6837 7.5013 17.956 7.00484 18.4888 6.56025C19.0066 6.12817 19.6022 7.22142 19.8858 7.56129" stroke="white" stroke-width="3" stroke-linecap="round"/>
<path d="M17.0027 25.3135C16.9237 26.1883 17.0402 26.8225 17.2349 27.6475C17.3551 28.1569 17.8015 28.626 17.8394 29.1293C17.8786 29.6507 18.3047 30.2377 18.4153 30.8054C18.5065 31.2729 18.5743 31.6143 18.8243 32.0289C19.7476 33.5597 20.8284 34.6592 21.944 35.9961" stroke="white" stroke-width="3" stroke-linecap="round"/>
<path d="M19.7137 12.2539C20.6083 12.9773 21.0016 13.8494 21.493 14.8761C22.2837 16.5284 23.2684 18.0436 24.1535 19.6416C24.5451 20.3488 25.1238 21.2729 25.1968 22.1003C25.2881 23.1365 24.1288 20.3145 23.6293 19.4021C21.9066 16.255 19.8301 13.0189 18.5893 9.63755C18.5193 9.44663 18.1807 7.45785 18.6973 8.02243C20.4948 9.98699 21.9344 12.6665 23.2312 14.9818C23.2948 15.0953 24.9651 18.3693 23.996 17.647C22.7972 16.7535 21.8811 15.3299 21.1308 14.0643C20.744 13.4118 19.968 11.2624 20.2311 11.9739C21.7395 16.0535 24.3135 19.7076 25.7756 23.8197C26.188 24.9795 27.2061 26.1475 27.9308 27.1048C28.0096 27.2088 29.7343 29.2691 28.8996 28.15C27.6403 26.4617 26.4785 24.7031 25.3385 22.9328C25.0193 22.4371 24.6919 21.7538 25.4768 22.6178C26.7195 23.9858 27.7445 25.5964 28.7901 27.1157C29.5598 28.234 30.2329 29.4286 31.0584 30.5068C31.7075 31.3544 30.7889 30.6187 30.4874 30.3312C28.1204 28.0743 25.9541 24.9723 24.2487 22.1631C24.0152 21.7785 23.7624 21.3299 23.5855 20.9139C23.2624 20.154 25.194 21.4263 25.8396 21.9411C28.2539 23.8662 30.7746 26.0389 32.7823 28.3988C33.2387 28.9353 33.5809 29.3472 33.8661 29.9736C34.2802 30.8832 32.1227 28.9853 31.3222 28.3871C29.8692 27.3012 28.3793 25.9266 26.5836 25.4237C25.0644 24.9983 27.6571 28.7895 27.6651 28.8009C29.2086 31.0078 30.8619 33.2192 32.6725 35.2167C33.4955 36.1247 34.3771 36.3036 35.3825 36.9278C35.9358 37.2714 37.0251 38.4301 35.7062 36.9713C34.0207 35.107 32.0461 33.496 30.2024 31.7934C28.0881 29.8411 31.0679 32.5043 31.4542 32.8784C33.3453 34.7097 35.3937 36.5338 37.1201 38.5219C38.05 39.5929 34.5062 38.3301 34.37 38.282C32.6602 37.6781 31.0347 36.9528 29.5507 35.8984C29.4347 35.816 27.1295 33.5578 27.9902 34.4572C29.8367 36.3868 31.7919 38.3026 33.4069 40.4328C34.305 41.6174 35.1385 43.1778 33.2143 40.893C29.6744 36.6899 26.335 32.208 23.4538 27.5249C22.2706 25.6017 25.9629 30.2804 26.0675 30.4289C27.8939 33.0226 29.4122 35.8474 30.809 38.6911C32.1173 41.3545 31.2621 40.0889 30.0484 38.498C29.6545 37.9817 25.8037 33.7451 26.2069 33.0637C26.4945 32.5777 27.019 33.8569 27.3478 34.316C28.4416 35.8435 29.4077 37.4701 30.4207 39.0513C31.004 39.9616 31.3008 40.3927 31.8115 41.2962C31.9581 41.5556 32.0965 41.8197 32.2303 42.0859C32.5059 42.6347 32.3358 42.3662 32.1982 42.1376C30.8484 39.8951 29.3787 37.806 27.762 35.7472C26.52 34.1654 26.2214 33.6497 27.3554 36.0101C28.5417 38.4793 30.4868 41.187 31.0805 43.8918C31.1758 44.3259 30.7055 43.7728 30.6584 43.7299C29.2789 42.4742 27.996 41.0763 26.8016 39.6462C26.241 38.9749 25.5326 38.0536 25.054 37.2727C24.701 36.6968 24.8422 36.5978 25.3706 37.0971C27.0669 38.6998 28.2595 40.7667 29.3509 42.8036C30.1518 44.2982 32.2917 48.8474 31.9233 47.1923C31.7412 46.3743 31.2065 45.6769 30.8206 44.933C29.0651 41.5483 27.2572 38.19 25.4425 34.8368C24.061 32.2841 24.0747 32.3265 22.8018 30.0048C22.3225 29.1307 20.585 26.7707 21.3783 27.3745C21.8337 27.7211 22.0376 28.3101 22.3688 28.7768C23.8323 30.8395 25.2859 32.9004 26.5958 35.0661C27.8164 37.0841 31.5485 43.0421 29.9833 41.2779C26.5504 37.4085 24.4867 32.1956 21.545 27.9361C21.4664 27.8223 21.2566 27.4731 21.3608 27.5641C21.535 27.7161 21.9503 28.3767 21.99 28.4415C22.7936 29.7518 23.9563 31.5512 23.9587 33.1568C23.9601 34.0849 20.6037 28.9043 20.5614 28.8287C19.7179 27.3187 18.5666 25.0856 17.8007 23.5213C17.7294 23.3758 16.018 20.3826 16.2554 19.8419C16.4332 19.4369 16.8613 20.4923 17.1036 20.8624C18.1131 22.4043 19.0158 24.0201 19.8712 25.6514C19.9825 25.8638 21.9156 30.0651 20.9238 27.5648C20.2069 25.7575 19.5302 23.9479 18.6593 22.2076C17.7389 20.3687 19.2737 22.0637 19.7371 22.662C20.3841 23.4974 21.2064 24.6446 21.4223 25.7125C21.9076 28.1128 19.5498 21.1851 18.7202 18.8811C18.5044 18.2818 18.2359 17.6966 18.0946 17.0755C18.0534 16.894 18.5027 16.989 18.6523 17.0996C20.136 18.1956 21.0617 19.9947 22.0852 21.4857C22.9877 22.8002 21.3329 19.3743 21.2915 19.2821C20.8215 18.2342 20.4865 17.0536 19.8515 16.0904C19.6281 15.7514 18.4657 12.832 18.2622 13.1853C17.8253 13.9436 18.1103 15.5071 18.2212 16.2951C18.49 18.2049 19.1758 20.0974 19.9906 21.8387C20.3106 22.5226 20.6822 22.6713 21.2829 23.0777C23.1761 24.3585 24.837 26.0115 26.6007 27.4601C29.2009 29.5957 31.6606 31.6351 34.7797 32.8027C35.9746 33.2501 36.9033 33.91 38.0067 34.5342C38.6631 34.9055 40.6933 35.5815 39.9479 35.6964C38.6624 35.8947 36.6906 34.6499 35.6731 34.0732C34.1511 33.2106 33.0088 32.0547 31.6709 30.9729C31.1046 30.515 32.1389 30.9669 32.2938 31.0304C33.1914 31.3977 33.9963 31.9474 34.9096 32.2821C36.3251 32.8009 37.7534 33.3297 39.0747 34.0591C39.3195 34.1942 40.6179 34.82 40.5162 35.1616C40.4408 35.4147 38.2559 33.5004 38.1387 33.3992C37.4075 32.768 36.4778 32.3844 35.7955 31.7083C35.2523 31.17 35.1081 31.135 36.0061 31.6458C37.6313 32.5702 39.5171 33.0521 41.211 33.8464C42.102 34.2642 43.1659 34.6336 43.9497 35.2461C44.5149 35.6877 44.8664 36.2224 45.4943 36.5629C46.0877 36.8846 46.5028 37.0672 47.0173 37.5227C47.7935 38.2101 48.2623 38.256 49.1074 38.6987C49.9787 39.1551 51.4156 40.2499 52.3974 40.3404C53.3985 40.4327 54.6879 43.1014 55.0288 43.7922C55.9021 45.5618 56.8435 46.7715 56.6561 48.8038C56.5978 49.4358 56.5395 50.0677 56.4812 50.6996C56.4199 51.3646 56.5716 52.7433 56.1344 53.2759C55.102 54.5335 53.7793 54.7451 52.2815 54.7778C50.153 54.8243 47.9593 54.2937 45.9351 53.701C43.9977 53.1337 42.7784 52.0513 41.1051 50.9887C40.7933 50.7906 39.1261 49.5703 38.9264 49.7363C38.6875 49.9349 38.9693 50.4356 38.6803 50.6285C37.8613 51.1752 36.2739 49.7925 35.7616 49.4035C33.3635 47.5824 31.4219 45.2571 29.1102 43.3413C28.2495 42.6281 27.4032 41.692 26.3439 41.3519C26.1569 41.2919 25.4553 40.8025 25.9587 41.2345C27.1051 42.2181 28.2994 43.1446 29.4477 44.1236C29.9846 44.5813 31.3281 46.2418 31.2587 46.9945C31.155 48.1194 29.3857 44.4924 30.246 43.7602C31.1751 42.9693 32.1626 41.8638 33.2511 42.8629C33.7096 43.2837 35.2712 45.7675 33.6154 44.8356C33.219 44.6125 32.0116 43.6663 32.2022 44.7599C32.3099 45.3779 32.6435 45.9891 32.9115 46.546C33.7155 48.2169 34.4243 49.6917 35.4453 51.2042C36.3739 52.5799 38.9396 52.3982 40.0896 53.7082C41.32 55.1097 42.8844 55.6866 44.6987 55.8539C48.2567 56.182 51.5931 58.1602 55.0935 56.5666C56.3562 55.9918 56.7422 54.3564 57.2943 53.1371C57.8679 51.8704 58.3016 50.2103 58.083 48.7306C57.9017 47.5032 57.6902 46.0419 57.0242 44.9595C56.808 44.608 57.004 43.8955 56.7329 43.6762C55.8812 42.9876 57.6054 45.1172 57.819 45.3742C58.8509 46.6157 59.6106 48.1246 59.5147 49.7912C59.4513 50.8931 59.3115 51.8207 58.1425 52.232C57.3805 52.5002 56.0381 53.1253 55.1869 52.8881C53.9302 52.5378 55.4555 45.829 55.557 44.7286C55.6316 43.9196 56.1003 42.7013 55.1649 42.3163C53.6312 41.685 52.2279 40.594 50.9074 39.6158C50.2063 39.0963 49.3702 38.7713 48.7893 38.1504C48.3566 37.688 49.829 38.6009 50.4605 38.6869C52.0018 38.8969 52.2639 39.6302 52.9568 40.9382C53.6843 42.3117 53.0988 43.8438 52.801 45.2938C52.6818 45.8736 52.6204 48.034 52.0163 48.4716C51.177 49.0795 48.8947 44.8378 48.7059 44.5338C47.6034 42.7579 46.3914 40.9788 45.4221 39.1236C45.3695 39.0229 45.2751 38.6978 45.2871 38.8107C45.3312 39.2274 45.5919 39.8216 45.7495 40.1644C46.5497 41.9054 48.0679 43.5405 49.6526 44.6348C50.4442 45.1814 51.3442 45.319 51.3401 43.9574C51.3304 40.7265 47.1603 38.6087 44.5029 37.8371C42.7231 37.3203 44.5545 38.8363 45.1609 39.2907C45.8831 39.8319 46.911 40.7904 47.8686 40.8787C48.1925 40.9086 46.073 39.5382 45.9092 39.469C45.8182 39.4305 42.4152 38.2625 42.3618 38.8414C42.256 39.9894 44.8102 41.1371 42.9236 40.45C40.2194 39.4651 43.0032 43.4341 43.6796 44.2478C44.3771 45.0871 47.6546 47.4791 44.5195 45.9504C42.8952 45.1584 41.4039 44.2688 40.0776 43.028C39.8339 42.8001 37.5504 40.4106 39.3519 41.5682C42.6276 43.6732 44.9503 47.2793 47.3726 50.2557C47.9198 50.928 48.1567 51.5024 49.0797 51.5875C49.7693 51.6511 50.6264 51.621 51.2238 52.031C51.4212 52.1665 51.7388 52.9563 51.4514 53.1172C50.5306 53.6327 48.7318 52.6499 47.924 52.273C46.8767 51.7843 45.8286 51.0419 44.6607 50.9342C43.877 50.8619 44.2573 51.8191 44.2829 51.7734C44.5452 51.3047 44.4567 50.4808 44.5069 49.9368" stroke="white" stroke-width="3" stroke-linecap="round"/>
<path d="M33.7822 48.9483C33.3933 49.1798 31.9787 48.8678 32.2849 49.1926C32.7158 49.6498 33.4161 49.8617 33.8911 50.4332" stroke="white" stroke-width="3" stroke-linecap="round"/>
<path d="M26.0212 18.4898C27.0138 19.684 27.376 21.6943 27.777 23.1446C28.2724 24.9363 28.8429 25.6445 30.6348 26.6582C32.4038 27.6589 35.5152 28.0619 35.4506 30.8577C35.4056 32.8054 31.6175 33.2852 30.1411 33.3452C28.438 33.4143 25.0073 33.8085 23.4936 32.8687C23.0056 32.5657 21.1359 31.9107 20.9494 31.4324C20.7359 30.8845 20.8386 30.0785 20.718 29.4992C20.5078 28.4894 20.1596 27.5149 19.8724 26.5261C19.6197 25.6563 19.5152 24.8157 19.1222 23.9989" stroke="white" stroke-width="3" stroke-linecap="round"/>
<path d="M16.2042 18.322C15.9887 20.6597 15.9303 18.4931 15.7842 17.5458" stroke="white" stroke-width="3" stroke-linecap="round"/>
<path d="M24.5659 12.9476C23.356 12.0268 23.8357 10.138 22.8435 9.11529C21.8266 8.06704 20.8454 6.9509 19.355 6.81346C18.3341 6.71932 17.7586 6.7983 17.6458 8.02146C17.5598 8.95467 17.2582 10.1749 17.6099 11.0771C18.4372 13.1996 20.3447 8.64046 20.1039 7.42877C19.7513 5.65361 18.0565 6.23511 16.8874 7.06389C16.1956 7.5543 16.416 8.45772 16.3048 9.2361C16.2198 9.83074 15.37 11.3761 15.4949 10.0218C15.5588 9.32881 16.0055 8.24316 16.6659 7.98573C17.6816 7.58979 16.4296 7.54033 15.9274 7.84934C14.2874 8.85831 14.5086 10.0545 14.3401 11.8817C14.2873 12.455 14.2344 13.0282 14.1816 13.6014C14.1028 14.4553 14.86 15.7836 14.3452 16.5662C14.3095 16.6204 14.2592 12.7591 14.0155 15.4024C13.9169 16.4719 13.6161 17.5075 13.4833 18.5079C13.3382 19.6013 14.1979 20.8361 14.4084 21.9526C14.502 22.4494 15.0618 23.8175 15.4262 24.0948C15.5922 24.2212 16.5245 25.671 16.3746 25.6572C16.1146 25.6332 15.6683 22.7956 15.469 22.4464C15.2276 22.0236 14.6093 20.6249 14.5621 20.1368C14.4046 18.505 13.4045 16.6973 13.5442 15.1814C13.6147 14.4177 13.5712 13.5399 13.7775 12.7994C13.8944 12.3803 14.9925 11.2023 14.8072 11.5561C14.2316 12.6548 13.8314 12.0676 13.9201 11.1056C13.9914 10.3327 14.8433 9.57798 15.5511 9.41241" stroke="white" stroke-width="3" stroke-linecap="round"/>
</svg>
