<svg width="70" height="70" viewBox="0 0 70 70" fill="none" xmlns="http://www.w3.org/2000/svg">
<path d="M17.9592 11.8201C16.553 12.4762 15.5304 13.3756 14.3333 14.3744C13.8328 14.792 13.9497 15.4862 14.1131 16.0237C14.4635 17.1764 14.3218 18.4573 14.4986 19.6535C14.642 20.6228 14.5226 21.5691 14.6522 22.5348C14.7585 23.3262 15.2399 24.0552 15.3869 24.8265C15.7211 26.581 16.9565 28.078 17.6924 29.7068C18.1218 30.657 18.9284 31.4076 19.3278 32.3723C20.0006 33.9977 20.7084 35.7529 21.551 37.295C23.5789 41.0062 25.9247 44.5126 28.6375 47.764C29.8393 49.2042 30.9588 50.8206 32.3025 52.1249C33.0908 52.8902 34.274 53.4569 35.1863 54.0758C36.1564 54.7338 37.1441 55.3141 38.2129 55.7899C40.1534 56.6537 42.1187 57.45 44.1391 57.9369C46.2234 58.4393 48.4929 59.0562 50.6316 58.5516C51.4425 58.3603 52.2948 58.5608 53.1129 58.5616C53.8703 58.5624 54.5408 58.2863 55.2737 58.1718C56.5713 57.9692 57.5269 56.964 58.6145 56.3264C59.88 55.5846 59.7086 55.3381 60.1206 53.9445C60.5495 52.4935 61.3167 50.7402 61.3808 49.2293C61.4494 47.6145 60.9913 46.4587 60.2669 45.0558C59.4936 43.5584 57.8496 42.1274 56.7551 40.8157C55.9197 39.8144 55.1443 38.767 54.1253 37.9462C52.2797 36.4597 49.9325 35.6284 47.7136 34.935C45.3634 34.2006 43.1404 33.3022 40.9252 32.2251C39.7784 31.6674 38.6075 31.2407 37.6568 30.3465C36.4558 29.2169 35.0013 28.2598 33.9346 27.0146C32.6801 25.5502 31.4627 24.052 30.2272 22.5714C28.945 21.0346 27.5486 19.597 26.8591 17.688C26.4053 16.4314 25.8824 15.001 25.281 13.8364C24.8303 12.9637 24.4808 12.0149 23.8451 11.253C22.933 10.1599 22.1562 9.35759 20.6231 9.64967C20.0954 9.75021 19.5179 9.67223 18.9805 9.67256C18.5914 9.67281 17.9642 10.4027 17.6806 10.6394C16.6985 11.4588 15.5128 12.6222 15.9641 14.0081C16.7333 16.3697 17.8234 18.4318 19.4412 20.3707C20.8787 22.0935 22.3162 23.8163 23.7536 25.5391C24.6891 26.6602 25.6245 27.7813 26.5599 28.9024C26.8608 29.263 26.8426 29.2777 26.4465 28.4999C25.9612 27.5469 23.5924 23.0301 23.4548 22.766C22.8751 21.653 21.1531 18.3856 20.4745 16.9047C20.3868 16.7132 19.8751 15.9789 20.3724 16.1394C21.6096 16.5386 22.9809 18.9021 23.6755 19.9256C24.5698 21.2433 24.9948 22.8394 25.8649 24.1177C27.4262 26.4114 27.9824 29.4454 29.0946 31.9559C30.4039 34.9111 32.547 37.6517 34.3905 40.2945C36.921 43.922 40.1111 47.699 44.0234 49.8948C45.4325 50.6857 42.126 47.2758 41.0908 46.0351C38.1665 42.5304 35.2422 39.0256 32.3178 35.5209C31.1692 34.1442 29.9639 32.8077 28.9823 31.3038C28.0357 29.8534 27.255 28.3432 26.2243 26.932C25.7716 26.3122 24.1654 23.5355 23.5387 25.3129C22.2489 28.9705 21.8245 33.4821 24.1221 36.7853C27.7303 41.9728 33.0311 45.4293 38.6146 48.1797C39.357 48.5454 40.3618 49.1188 41.215 49.3203C42.4269 49.6065 39.9103 47.1895 39.1189 46.228C36.7726 43.377 34.412 40.5292 31.9346 37.7902C31.5088 37.3194 27.5396 32.9497 30.3466 36.7338C32.819 40.0669 35.3919 43.3225 37.9293 46.6056C39.6773 48.8673 41.2933 51.4947 43.5599 53.291C44.3526 53.9193 45.3604 54.4733 46.3996 54.4676C47.5036 54.4614 47.3559 52.3592 47.3511 51.7502C47.3275 48.8043 46.3374 46.3033 44.7992 43.8306C44.7449 43.7433 41.9889 40.1509 44.1463 42.609C45.8194 44.5153 47.5232 46.3952 49.2192 48.2811C50.718 49.9476 52.1726 51.7068 53.9971 53.035C54.718 53.5599 57.0306 55.1547 56.1298 52.9565C55.3793 51.1253 51.4411 46.5845 52.709 48.104C53.1193 48.5958 54.1892 50.527 54.9081 49.4224C56.2356 47.3826 52.6037 43.3955 51.5771 42.0744C49.9999 40.0448 48.2968 37.6043 46.1682 36.0937C45.7973 35.8305 45.3572 35.6842 44.9563 35.9272C43.923 36.5537 42.7539 36.4189 41.6005 36.2805C40.2715 36.121 38.9569 35.8707 37.6305 35.6938C37.4946 35.6757 36.4469 35.3902 36.7057 35.8243C37.5019 37.1598 38.7505 38.4403 39.731 39.6068C40.7796 40.8545 42.4472 42.8201 43.5824 44.0346C44.0825 44.5695 45.3064 46.2107 45.235 45.4819C45.203 45.1553 44.9118 44.9089 44.7187 44.6436C44.2553 44.0069 43.7613 43.3929 43.2678 42.7793C42.0029 41.2064 39.4558 38.1599 38.2138 36.6595C36.6737 34.7989 35.23 32.9621 33.9474 30.9817" stroke="white" stroke-width="3" stroke-linecap="round"/>
<path d="M15.8956 13.5989C15.313 13.5153 15.261 13.5867 14.8012 13.9704C14.5721 14.1616 14.2673 14.7049 14.1111 14.2252C13.9372 13.6913 16.2582 11.9403 16.7267 11.6616C16.9759 11.5133 17.5742 11.276 17.8704 11.3493C18.2667 11.4474 18.4329 11.8421 18.0986 12.0917C17.5694 12.4869 16.7225 12.9211 16.0707 12.9913C15.6285 13.039 14.8328 13.2461 14.8555 12.5207C14.8688 12.0954 15.0123 11.7001 15.3134 11.3864C16.3758 10.2792 18.0622 8.6297 19.6734 8.8217C19.818 8.83893 20.4348 9.11314 20.5257 9.19393C20.9166 9.54135 21.219 9.59201 21.5774 10.0216C22.1448 10.7016 23.136 12.3827 23.2995 10.5708C23.417 9.27023 21.4522 7.67646 20.283 7.4003C18.3153 6.93557 16.5505 9.038 16.2932 10.8296C16.2454 11.1627 16.6668 11.467 16.7997 11.7612C16.9118 12.0093 17.0356 12.2534 17.1542 12.4986C17.4053 13.0178 16.7613 11.3744 16.8208 10.8007C16.9331 9.71796 17.4588 8.88209 17.5487 7.8862C17.6014 7.30215 16.5632 8.41693 16.4467 8.58506C16.3797 8.68162 16.2005 8.78769 16.3187 8.91254C16.5242 9.12979 17.1079 8.12279 17.2273 7.99388C17.6836 7.5013 17.9558 7.00484 18.4887 6.56025C19.0065 6.12817 19.6021 7.22142 19.8857 7.56129" stroke="white" stroke-width="3" stroke-linecap="round"/>
<path d="M17.0027 25.3135C16.9237 26.1883 17.0402 26.8225 17.2349 27.6475C17.3551 28.1569 17.8015 28.626 17.8394 29.1293C17.8786 29.6507 18.3047 30.2377 18.4153 30.8054C18.5065 31.2729 18.5743 31.6143 18.8243 32.0289C19.7476 33.5597 20.8284 34.6592 21.944 35.9961" stroke="white" stroke-width="3" stroke-linecap="round"/>
<path d="M19.7134 12.2539C20.608 12.9773 21.0014 13.8494 21.4927 14.8761C22.2834 16.5284 23.2682 18.0436 24.1532 19.6416C24.5449 20.3488 25.1236 21.2729 25.1965 22.1003C25.2878 23.1365 24.1285 20.3145 23.6291 19.4021C21.9064 16.255 19.8299 13.0189 18.5891 9.63755C18.519 9.44663 18.1805 7.45785 18.6971 8.02243C20.4946 9.98699 21.9341 12.6665 23.231 14.9818C23.2945 15.0953 24.9649 18.3693 23.9958 17.647C22.797 16.7535 21.8808 15.3299 21.1306 14.0643C20.7437 13.4118 19.9678 11.2624 20.2309 11.9739C21.7392 16.0535 24.3132 19.7076 25.7754 23.8197C26.1878 24.9795 27.2058 26.1475 27.9306 27.1048C28.0094 27.2088 29.7341 29.2691 28.8993 28.15C27.6401 26.4617 26.4782 24.7031 25.3382 22.9328C25.0191 22.4371 24.6917 21.7538 25.4765 22.6178C26.7192 23.9858 27.7442 25.5964 28.7899 27.1157C29.5595 28.234 30.2327 29.4286 31.0582 30.5068C31.7072 31.3544 30.7887 30.6187 30.4872 30.3312C28.1202 28.0743 25.9538 24.9723 24.2484 22.1631C24.015 21.7785 23.7621 21.3299 23.5852 20.9139C23.2622 20.154 25.1938 21.4263 25.8394 21.9411C28.2537 23.8662 30.7743 26.0389 32.782 28.3988C33.2384 28.9353 33.5807 29.3472 33.8659 29.9736C34.2799 30.8832 32.1224 28.9853 31.3219 28.3871C29.869 27.3012 28.379 25.9266 26.5834 25.4237C25.0641 24.9983 27.6569 28.7895 27.6649 28.8009C29.2083 31.0078 30.8617 33.2192 32.6723 35.2167C33.4953 36.1247 34.3768 36.3036 35.3823 36.9278C35.9356 37.2714 37.0249 38.4301 35.706 36.9713C34.0205 35.107 32.0459 33.496 30.2021 31.7934C28.0878 29.8411 31.0676 32.5043 31.454 32.8784C33.345 34.7097 35.3935 36.5338 37.1198 38.5219C38.0497 39.5929 34.506 38.3301 34.3697 38.282C32.66 37.6781 31.0345 36.9528 29.5504 35.8984C29.4345 35.816 27.1293 33.5578 27.99 34.4572C29.8365 36.3868 31.7917 38.3026 33.4067 40.4328C34.3048 41.6174 35.1383 43.1778 33.214 40.893C29.6741 36.6899 26.3348 32.208 23.4536 27.5249C22.2703 25.6017 25.9627 30.2804 26.0672 30.4289C27.8936 33.0226 29.4119 35.8474 30.8088 38.6911C32.1171 41.3545 31.2619 40.0889 30.0482 38.498C29.6542 37.9817 25.8035 33.7451 26.2066 33.0637C26.4942 32.5777 27.0187 33.8569 27.3475 34.316C28.4414 35.8435 29.4074 37.4701 30.4205 39.0513C31.0037 39.9616 31.3006 40.3927 31.8112 41.2962C31.9578 41.5556 32.0963 41.8197 32.23 42.0859C32.5057 42.6347 32.3356 42.3662 32.198 42.1376C30.8481 39.8951 29.3784 37.806 27.7618 35.7472C26.5197 34.1654 26.2212 33.6497 27.3552 36.0101C28.5415 38.4793 30.4865 41.187 31.0803 43.8918C31.1756 44.3259 30.7052 43.7728 30.6582 43.7299C29.2787 42.4742 27.9958 41.0763 26.8014 39.6462C26.2407 38.9749 25.5324 38.0536 25.0538 37.2727C24.7008 36.6968 24.8419 36.5978 25.3704 37.0971C27.0666 38.6998 28.2592 40.7667 29.3507 42.8036C30.1516 44.2982 32.2915 48.8474 31.923 47.1923C31.7409 46.3743 31.2062 45.6769 30.8204 44.933C29.0649 41.5483 27.257 38.19 25.4423 34.8368C24.0608 32.2841 24.0745 32.3265 22.8016 30.0048C22.3223 29.1307 20.5848 26.7707 21.3781 27.3745C21.8335 27.7211 22.0374 28.3101 22.3686 28.7768C23.8321 30.8395 25.2856 32.9004 26.5956 35.0661C27.8162 37.0841 31.5482 43.0421 29.983 41.2779C26.5501 37.4085 24.4864 32.1956 21.5448 27.9361C21.4661 27.8223 21.2563 27.4731 21.3606 27.5641C21.5348 27.7161 21.9501 28.3767 21.9898 28.4415C22.7933 29.7518 23.956 31.5512 23.9585 33.1568C23.9599 34.0849 20.6034 28.9043 20.5612 28.8287C19.7176 27.3187 18.5663 25.0856 17.8004 23.5213C17.7292 23.3758 16.0178 20.3826 16.2552 19.8419C16.433 19.4369 16.8611 20.4923 17.1034 20.8624C18.1128 22.4043 19.0155 24.0201 19.8709 25.6514C19.9823 25.8638 21.9154 30.0651 20.9235 27.5648C20.2066 25.7575 19.53 23.9479 18.659 22.2076C17.7387 20.3687 19.2735 22.0637 19.7369 22.662C20.3839 23.4974 21.2062 24.6446 21.4221 25.7125C21.9074 28.1128 19.5495 21.1851 18.7199 18.8811C18.5041 18.2818 18.2357 17.6966 18.0944 17.0755C18.0531 16.894 18.5024 16.989 18.6521 17.0996C20.1358 18.1956 21.0615 19.9947 22.085 21.4857C22.9874 22.8002 21.3326 19.3743 21.2913 19.2821C20.8213 18.2342 20.4862 17.0536 19.8513 16.0904C19.6279 15.7514 18.4654 12.832 18.2619 13.1853C17.8251 13.9436 18.1101 15.5071 18.221 16.2951C18.4898 18.2049 19.1756 20.0974 19.9903 21.8387C20.3103 22.5226 20.682 22.6713 21.2827 23.0777C23.1758 24.3585 24.8368 26.0115 26.6005 27.4601C29.2007 29.5957 31.6604 31.6351 34.7794 32.8027C35.9744 33.2501 36.9031 33.91 38.0065 34.5342C38.6629 34.9055 40.6931 35.5815 39.9477 35.6964C38.6622 35.8947 36.6904 34.6499 35.6728 34.0732C34.1508 33.2106 33.0085 32.0547 31.6707 30.9729C31.1043 30.515 32.1386 30.9669 32.2936 31.0304C33.1912 31.3977 33.9961 31.9474 34.9094 32.2821C36.3249 32.8009 37.7531 33.3297 39.0745 34.0591C39.3192 34.1942 40.6176 34.82 40.5159 35.1616C40.4406 35.4147 38.2556 33.5004 38.1384 33.3992C37.4072 32.768 36.4775 32.3844 35.7953 31.7083C35.252 31.17 35.1078 31.135 36.0059 31.6458C37.6311 32.5702 39.5168 33.0521 41.2108 33.8464C42.1018 34.2642 43.1656 34.6336 43.9495 35.2461C44.5146 35.6877 44.8661 36.2224 45.4941 36.5629C46.0874 36.8846 46.5025 37.0672 47.017 37.5227C47.7933 38.2101 48.2621 38.256 49.1072 38.6987C49.9784 39.1551 51.4154 40.2499 52.3972 40.3404C53.3983 40.4327 54.6876 43.1014 55.0286 43.7922C55.9019 45.5618 56.8432 46.7715 56.6558 48.8038C56.5975 49.4358 56.5393 50.0677 56.481 50.6996C56.4197 51.3646 56.5714 52.7433 56.1342 53.2759C55.1018 54.5335 53.7791 54.7451 52.2812 54.7778C50.1528 54.8243 47.959 54.2937 45.9348 53.701C43.9974 53.1337 42.7781 52.0513 41.1049 50.9887C40.793 50.7906 39.1259 49.5703 38.9262 49.7363C38.6872 49.9349 38.9691 50.4356 38.68 50.6285C37.861 51.1752 36.2736 49.7925 35.7613 49.4035C33.3632 47.5824 31.4217 45.2571 29.1099 43.3413C28.2492 42.6281 27.403 41.692 26.3437 41.3519C26.1566 41.2919 25.455 40.8025 25.9585 41.2345C27.1048 42.2181 28.2992 43.1446 29.4475 44.1236C29.9843 44.5813 31.3279 46.2418 31.2585 46.9945C31.1547 48.1194 29.3855 44.4924 30.2457 43.7602C31.1748 42.9693 32.1623 41.8638 33.2509 42.8629C33.7094 43.2837 35.271 45.7675 33.6152 44.8356C33.2188 44.6125 32.0114 43.6663 32.2019 44.7599C32.3096 45.3779 32.6433 45.9891 32.9112 46.546C33.7152 48.2169 34.4241 49.6917 35.4451 51.2042C36.3737 52.5799 38.9393 52.3982 40.0894 53.7082C41.3198 55.1097 42.8842 55.6866 44.6985 55.8539C48.2564 56.182 51.5928 58.1602 55.0933 56.5666C56.356 55.9918 56.7419 54.3564 57.2941 53.1371C57.8677 51.8704 58.3014 50.2103 58.0828 48.7306C57.9015 47.5032 57.6899 46.0419 57.024 44.9595C56.8077 44.608 57.0038 43.8955 56.7326 43.6762C55.8809 42.9876 57.6052 45.1172 57.8187 45.3742C58.8506 46.6157 59.6104 48.1246 59.5145 49.7912C59.4511 50.8931 59.3113 51.8207 58.1423 52.232C57.3802 52.5002 56.0379 53.1253 55.1867 52.8881C53.9299 52.5378 55.4553 45.829 55.5567 44.7286C55.6313 43.9196 56.1001 42.7013 55.1647 42.3163C53.6309 41.685 52.2276 40.594 50.9072 39.6158C50.206 39.0963 49.37 38.7713 48.789 38.1504C48.3563 37.688 49.8288 38.6009 50.4602 38.6869C52.0016 38.8969 52.2637 39.6302 52.9565 40.9382C53.6841 42.3117 53.0986 43.8438 52.8007 45.2938C52.6816 45.8736 52.6201 48.034 52.0161 48.4716C51.1768 49.0795 48.8944 44.8378 48.7057 44.5338C47.6032 42.7579 46.3912 40.9788 45.4218 39.1236C45.3692 39.0229 45.2749 38.6978 45.2868 38.8107C45.3309 39.2274 45.5917 39.8216 45.7492 40.1644C46.5494 41.9054 48.0677 43.5405 49.6523 44.6348C50.444 45.1814 51.3439 45.319 51.3398 43.9574C51.3302 40.7265 47.16 38.6087 44.5026 37.8371C42.7228 37.3203 44.5543 38.8363 45.1606 39.2907C45.8828 39.8319 46.9107 40.7904 47.8683 40.8787C48.1922 40.9086 46.0727 39.5382 45.9089 39.469C45.8179 39.4305 42.415 38.2625 42.3616 38.8414C42.2557 39.9894 44.81 41.1371 42.9234 40.45C40.2192 39.4651 43.003 43.4341 43.6793 44.2478C44.3769 45.0871 47.6544 47.4791 44.5192 45.9504C42.8949 45.1584 41.4037 44.2688 40.0773 43.028C39.8337 42.8001 37.5502 40.4106 39.3516 41.5682C42.6274 43.6732 44.95 47.2793 47.3724 50.2557C47.9196 50.928 48.1565 51.5024 49.0795 51.5875C49.769 51.6511 50.6262 51.621 51.2235 52.031C51.4209 52.1665 51.7386 52.9563 51.4511 53.1172C50.5303 53.6327 48.7315 52.6499 47.9238 52.273C46.8765 51.7843 45.8283 51.0419 44.6605 50.9342C43.8768 50.8619 44.2571 51.8191 44.2827 51.7734C44.5449 51.3047 44.4565 50.4808 44.5067 49.9368" stroke="white" stroke-width="3" stroke-linecap="round"/>
<path d="M33.7819 48.9484C33.393 49.1798 31.9783 48.8678 32.2845 49.1926C32.7155 49.6499 33.4158 49.8618 33.8908 50.4333" stroke="white" stroke-width="3" stroke-linecap="round"/>
<path d="M26.0212 18.4898C27.0138 19.684 27.376 21.6943 27.777 23.1446C28.2724 24.9363 28.8429 25.6446 30.6348 26.6583C32.4038 27.659 35.5152 28.0619 35.4506 30.8578C35.4056 32.8054 31.6175 33.2852 30.1411 33.3452C28.438 33.4144 25.0073 33.8085 23.4936 32.8688C23.0056 32.5658 21.1359 31.9107 20.9494 31.4324C20.7359 30.8846 20.8386 30.0785 20.718 29.4992C20.5078 28.4894 20.1596 27.5149 19.8724 26.5262C19.6197 25.6563 19.5152 24.8157 19.1222 23.9989" stroke="white" stroke-width="3" stroke-linecap="round"/>
<path d="M16.2037 18.322C15.9882 20.6597 15.9298 18.4931 15.7837 17.5458" stroke="white" stroke-width="3" stroke-linecap="round"/>
<path d="M24.5656 12.9476C23.3558 12.0269 23.8354 10.1381 22.8433 9.11532C21.8264 8.06707 20.8452 6.95093 19.3547 6.81349C18.3339 6.71936 17.7584 6.79833 17.6456 8.0215C17.5595 8.9547 17.2579 10.1749 17.6096 11.0771C18.437 13.1996 20.3444 8.64049 20.1037 7.4288C19.7511 5.65365 18.0563 6.23514 16.8872 7.06392C16.1954 7.55434 16.4157 8.45775 16.3045 9.23613C16.2196 9.83077 15.3698 11.3761 15.4946 10.0218C15.5585 9.32884 16.0052 8.24319 16.6656 7.98576C17.6813 7.58982 16.4294 7.54036 15.9271 7.84937C14.2872 8.85834 14.5084 10.0546 14.3399 11.8818C14.287 12.455 14.2342 13.0282 14.1813 13.6015C14.1026 14.4553 14.8598 15.7836 14.3449 16.5663C14.3093 16.6204 14.259 12.7592 14.0152 15.4024C13.9166 16.472 13.6158 17.5075 13.4831 18.5079C13.338 19.6013 14.1976 20.8361 14.4081 21.9526C14.5018 22.4494 15.0615 23.8175 15.426 24.0949C15.592 24.2212 16.5242 25.671 16.3744 25.6572C16.1143 25.6332 15.6681 22.7956 15.4687 22.4464C15.2273 22.0236 14.609 20.6249 14.5619 20.1369C14.4043 18.505 13.4042 16.6974 13.544 15.1814C13.6144 14.4177 13.5709 13.5399 13.7773 12.7995C13.8941 12.3803 14.9923 11.2023 14.8069 11.5561C14.2313 12.6548 13.8311 12.0677 13.9198 11.1056C13.9911 10.3327 14.8431 9.57801 15.5508 9.41244" stroke="white" stroke-width="3" stroke-linecap="round"/>
</svg>
