<svg width="43" height="43" viewBox="0 0 43 43" fill="none" xmlns="http://www.w3.org/2000/svg">
<path d="M11.6182 7.60609C10.7728 8.00056 10.158 8.54126 9.43831 9.14174C9.13743 9.3928 9.20769 9.81012 9.30592 10.1332C9.5166 10.8263 9.43139 11.5963 9.53773 12.3154C9.62391 12.8982 9.55213 13.4671 9.63006 14.0476C9.69394 14.5235 9.98337 14.9617 10.0717 15.4255C10.2727 16.4802 11.0153 17.3802 11.4578 18.3594C11.716 18.9307 12.2009 19.3819 12.4409 19.9619C12.8455 20.9391 13.271 21.9943 13.7776 22.9214C14.9967 25.1525 16.4069 27.2605 18.0379 29.2152C18.7604 30.0811 19.4334 31.0528 20.2412 31.837C20.7151 32.297 21.4265 32.6377 21.975 33.0098C22.5582 33.4054 23.1519 33.7543 23.7945 34.0403C24.9611 34.5596 26.1426 35.0383 27.3573 35.3311C28.6104 35.6331 29.9748 36.004 31.2605 35.7006C31.748 35.5856 32.2604 35.7062 32.7523 35.7067C33.2076 35.7071 33.6107 35.5411 34.0513 35.4723C34.8314 35.3505 35.4059 34.7462 36.0598 34.3629C36.8206 33.9169 36.7175 33.7687 36.9652 32.9309C37.2231 32.0586 37.6843 31.0045 37.7229 30.0961C37.7641 29.1254 37.4887 28.4305 37.0531 27.5871C36.5883 26.6869 35.5999 25.8266 34.9419 25.038C34.4397 24.436 33.9735 23.8063 33.3609 23.3129C32.2513 22.4192 30.8402 21.9194 29.5063 21.5026C28.0933 21.061 26.7569 20.5209 25.4251 19.8734C24.7356 19.5381 24.0317 19.2816 23.4602 18.744C22.7382 18.0649 21.8637 17.4895 21.2224 16.7409C20.4682 15.8605 19.7363 14.9598 18.9936 14.0697C18.2227 13.1458 17.3832 12.2815 16.9687 11.1338C16.6959 10.3784 16.3815 9.51844 16.0199 8.81826C15.749 8.2936 15.5389 7.72324 15.1567 7.26517C14.6084 6.60803 14.1414 6.12566 13.2197 6.30126C12.9024 6.3617 12.5553 6.31482 12.2322 6.31502C11.9983 6.31516 11.6212 6.754 11.4507 6.89628C10.8603 7.38889 10.1474 8.08831 10.4188 8.92151C10.8812 10.3412 11.5365 11.581 12.5091 12.7467C13.3733 13.7824 14.2375 14.8181 15.1017 15.8538C15.6641 16.5278 16.2265 17.2018 16.7889 17.8758C16.9698 18.0926 16.9588 18.1014 16.7207 17.6338C16.4289 17.0609 15.0048 14.3455 14.9221 14.1866C14.5736 13.5175 13.5383 11.5532 13.1304 10.6629C13.0776 10.5478 12.77 10.1063 13.069 10.2028C13.8128 10.4428 14.6372 11.8637 15.0548 12.479C15.5924 13.2712 15.8479 14.2308 16.371 14.9993C17.3096 16.3782 17.644 18.2023 18.3127 19.7115C19.0998 21.4882 20.3882 23.1358 21.4965 24.7246C23.0178 26.9055 24.9357 29.1761 27.2878 30.4963C28.1349 30.9717 26.147 28.9217 25.5247 28.1758C23.7666 26.0688 22.0085 23.9618 20.2505 21.8548C19.5599 21.0272 18.8353 20.2236 18.2452 19.3195C17.6761 18.4475 17.2067 17.5396 16.5871 16.6912C16.3149 16.3186 15.3493 14.6493 14.9725 15.7178C14.1971 17.9168 13.942 20.6291 15.3233 22.6149C17.4925 25.7336 20.6793 27.8116 24.036 29.4651C24.4824 29.685 25.0864 30.0297 25.5994 30.1509C26.3279 30.3229 24.8149 28.8698 24.3392 28.2918C22.9286 26.5778 21.5094 24.8658 20.0201 23.2191C19.7641 22.936 17.3778 20.309 19.0654 22.584C20.5518 24.5878 22.0985 26.545 23.624 28.5188C24.6749 29.8785 25.6464 31.4581 27.0091 32.538C27.4856 32.9157 28.0915 33.2488 28.7163 33.2453C29.38 33.2417 29.2912 31.9778 29.2883 31.6117C29.2741 29.8407 28.6789 28.3371 27.7541 26.8505C27.7215 26.798 26.0646 24.6383 27.3616 26.1161C28.3675 27.2621 29.3917 28.3923 30.4114 29.5261C31.3125 30.528 32.1869 31.5856 33.2838 32.3841C33.7172 32.6996 35.1076 33.6585 34.566 32.3369C34.1148 31.236 31.7472 28.5061 32.5094 29.4196C32.7561 29.7153 33.3993 30.8763 33.8315 30.2122C34.6296 28.9859 32.4461 26.5889 31.8289 25.7947C30.8808 24.5745 29.8569 23.1073 28.5771 22.1991C28.3542 22.0409 28.0896 21.953 27.8486 22.0991C27.2274 22.4757 26.5245 22.3947 25.8311 22.3114C25.0321 22.2156 24.2418 22.0651 23.4444 21.9587C23.3627 21.9478 22.7328 21.7762 22.8884 22.0372C23.3671 22.8401 24.1177 23.6099 24.7072 24.3112C25.3376 25.0613 26.3401 26.243 27.0226 26.9731C27.3233 27.2947 28.059 28.2814 28.0161 27.8433C27.9969 27.6469 27.8218 27.4988 27.7057 27.3393C27.4271 26.9565 27.1301 26.5874 26.8335 26.2185C26.073 25.2729 24.5417 23.4414 23.7951 22.5393C22.8692 21.4207 22.0012 20.3164 21.2301 19.1259" stroke="white" stroke-width="3" stroke-linecap="round"/>
<path d="M10.3775 8.6756C10.0273 8.6253 9.99605 8.66826 9.71962 8.89892C9.58187 9.01385 9.39863 9.3405 9.30471 9.05213C9.20018 8.73116 10.5956 7.67847 10.8772 7.51092C11.027 7.42176 11.3867 7.27907 11.5648 7.32315C11.803 7.38213 11.903 7.61945 11.702 7.76948C11.3838 8.00706 10.8747 8.26811 10.4828 8.31033C10.217 8.33899 9.73863 8.46349 9.75227 8.0274C9.76028 7.77168 9.84655 7.53405 10.0275 7.34545C10.6662 6.67984 11.6801 5.68816 12.6488 5.80358C12.7357 5.81394 13.1065 5.97879 13.1611 6.02736C13.3961 6.23623 13.5779 6.26669 13.7934 6.52497C14.1345 6.93376 14.7304 7.94443 14.8287 6.85514C14.8993 6.07323 13.7182 5.11508 13.0152 4.94905C11.8323 4.66966 10.7713 5.93362 10.6166 7.01071C10.5879 7.211 10.8412 7.3939 10.9211 7.57077C10.9885 7.71996 11.0629 7.86667 11.1342 8.01409C11.2852 8.32627 10.898 7.33823 10.9338 6.99332C11.0013 6.34241 11.3173 5.83989 11.3714 5.24117C11.4031 4.89004 10.7789 5.56024 10.7089 5.66132C10.6686 5.71937 10.5609 5.78314 10.6319 5.8582C10.7555 5.98881 11.1064 5.38341 11.1782 5.30591C11.4525 5.00977 11.6162 4.7113 11.9365 4.44402C12.2478 4.18426 12.6059 4.84151 12.7763 5.04584" stroke="white" stroke-width="3" stroke-linecap="round"/>
<path d="M11.0431 15.7185C10.9956 16.2444 11.0656 16.6257 11.1827 17.1217C11.2549 17.4279 11.5233 17.71 11.546 18.0125C11.5696 18.326 11.8258 18.6789 11.8923 19.0202C11.9471 19.3013 11.9879 19.5065 12.1382 19.7557C12.6933 20.676 13.3431 21.337 14.0137 22.1408" stroke="white" stroke-width="3" stroke-linecap="round"/>
<path d="M12.6731 7.86695C13.2109 8.30183 13.4473 8.82609 13.7428 9.44337C14.2181 10.4367 14.8101 11.3477 15.3422 12.3083C15.5777 12.7335 15.9256 13.289 15.9694 13.7865C16.0243 14.4094 15.3274 12.7129 15.0271 12.1643C13.9914 10.2723 12.7431 8.32686 11.9971 6.29399C11.955 6.17921 11.7515 4.98358 12.062 5.323C13.1427 6.50407 14.0081 8.11496 14.7878 9.50689C14.826 9.57512 15.8302 11.5434 15.2475 11.1092C14.5269 10.572 13.9761 9.71617 13.525 8.95533C13.2925 8.56302 12.826 7.27083 12.9841 7.69859C13.891 10.1512 15.4384 12.348 16.3174 14.8202C16.5654 15.5174 17.1774 16.2196 17.6131 16.7951C17.6605 16.8577 18.6974 18.0963 18.1955 17.4235C17.4385 16.4085 16.74 15.3513 16.0546 14.2869C15.8628 13.989 15.6659 13.5781 16.1378 14.0976C16.8849 14.92 17.5011 15.8883 18.1297 16.8017C18.5924 17.474 18.9971 18.1922 19.4934 18.8404C19.8836 19.35 19.3314 18.9076 19.1501 18.7348C17.7271 17.378 16.4247 15.5131 15.3995 13.8242C15.2591 13.593 15.1071 13.3233 15.0008 13.0732C14.8065 12.6164 15.9678 13.3813 16.3559 13.6908C17.8074 14.8481 19.3228 16.1543 20.5298 17.5731C20.8042 17.8956 21.0099 18.1432 21.1814 18.5198C21.4303 19.0667 20.1332 17.9257 19.652 17.566C18.7785 16.9132 17.8827 16.0868 16.8032 15.7845C15.8898 15.5287 17.4486 17.8079 17.4534 17.8148C18.3813 19.1416 19.3753 20.4711 20.4638 21.6719C20.9586 22.2178 21.4886 22.3254 22.093 22.7006C22.4257 22.9072 23.0805 23.6038 22.2876 22.7268C21.2743 21.606 20.0872 20.6374 18.9787 19.6139C17.7077 18.4402 19.4991 20.0412 19.7314 20.2662C20.8682 21.3671 22.0998 22.4638 23.1376 23.659C23.6967 24.3029 21.5662 23.5437 21.4843 23.5148C20.4564 23.1517 19.4792 22.7157 18.587 22.0818C18.5173 22.0322 17.1314 20.6746 17.6488 21.2153C18.7589 22.3754 19.9344 23.5272 20.9053 24.8078C21.4453 25.52 21.9463 26.458 20.7895 25.0845C18.6613 22.5576 16.6537 19.8631 14.9216 17.0477C14.2102 15.8915 16.43 18.7043 16.4929 18.7935C17.5909 20.3528 18.5037 22.0511 19.3435 23.7607C20.13 25.3619 19.6159 24.6011 18.8862 23.6446C18.6494 23.3342 16.3343 20.7872 16.5767 20.3776C16.7496 20.0854 17.0649 20.8544 17.2626 21.1305C17.9202 22.0487 18.501 23.0267 19.11 23.9772C19.4607 24.5245 19.6391 24.7837 19.9461 25.3269C20.0343 25.4828 20.1175 25.6416 20.1979 25.8016C20.3636 26.1315 20.2614 25.9702 20.1786 25.8327C19.3671 24.4846 18.4836 23.2286 17.5117 21.9908C16.7649 21.0399 16.5855 20.7299 17.2672 22.1489C17.9804 23.6334 19.1497 25.2612 19.5067 26.8873C19.564 27.1483 19.2812 26.8157 19.2529 26.79C18.4236 26.0351 17.6523 25.1947 16.9343 24.3349C16.5972 23.9313 16.1713 23.3774 15.8836 22.908C15.6714 22.5618 15.7563 22.5022 16.074 22.8024C17.0937 23.7659 17.8107 25.0086 18.4669 26.2331C18.9484 27.1317 20.2349 29.8666 20.0133 28.8716C19.9039 28.3798 19.5824 27.9605 19.3505 27.5133C18.2951 25.4784 17.2082 23.4594 16.1172 21.4435C15.2867 19.9089 15.2949 19.9343 14.5296 18.5386C14.2415 18.0131 13.1969 16.5943 13.6738 16.9573C13.9476 17.1657 14.0702 17.5198 14.2693 17.8004C15.1492 19.0404 16.023 20.2794 16.8105 21.5814C17.5444 22.7946 19.788 26.3765 18.847 25.3158C16.7832 22.9896 15.5425 19.8557 13.774 17.2949C13.7268 17.2265 13.6006 17.0166 13.6633 17.0713C13.768 17.1626 14.0177 17.5598 14.0416 17.5987C14.5247 18.3865 15.2237 19.4683 15.2251 20.4336C15.226 20.9915 13.2081 17.877 13.1827 17.8315C12.6756 16.9237 11.9834 15.5812 11.523 14.6408C11.4801 14.5533 10.4513 12.7538 10.594 12.4288C10.7009 12.1853 10.9583 12.8198 11.1039 13.0423C11.7108 13.9693 12.2535 14.9406 12.7677 15.9214C12.8347 16.049 13.9969 18.5748 13.4006 17.0717C12.9696 15.9851 12.5628 14.8972 12.0391 13.851C11.4859 12.7455 12.4086 13.7645 12.6872 14.1242C13.0761 14.6264 13.5705 15.3161 13.7003 15.9581C13.992 17.4011 12.5745 13.2363 12.0758 11.8511C11.946 11.4908 11.7846 11.139 11.6997 10.7656C11.6749 10.6565 11.945 10.7136 12.035 10.7801C12.927 11.439 13.4835 12.5206 14.0988 13.417C14.6413 14.2073 13.6465 12.1476 13.6216 12.0922C13.3391 11.4622 13.1377 10.7525 12.7559 10.1734C12.6216 9.9696 11.9228 8.21447 11.8004 8.42685C11.5378 8.88273 11.7091 9.82271 11.7758 10.2964C11.9374 11.4446 12.3497 12.5824 12.8395 13.6292C13.0319 14.0403 13.2553 14.1298 13.6165 14.3741C14.7546 15.1441 15.7532 16.1379 16.8135 17.0087C18.3767 18.2926 19.8554 19.5187 21.7306 20.2207C22.449 20.4896 23.0073 20.8864 23.6707 21.2616C24.0653 21.4849 25.2858 21.8912 24.8377 21.9603C24.0648 22.0795 22.8794 21.3312 22.2677 20.9845C21.3527 20.4659 20.666 19.771 19.8616 19.1206C19.5212 18.8453 20.143 19.117 20.2361 19.1551C20.7757 19.376 21.2597 19.7065 21.8087 19.9077C22.6597 20.2196 23.5183 20.5375 24.3127 20.976C24.4599 21.0572 25.2405 21.4335 25.1793 21.6388C25.134 21.791 23.8205 20.6401 23.75 20.5793C23.3104 20.1998 22.7515 19.9692 22.3413 19.5627C22.0147 19.2391 21.928 19.2181 22.4679 19.5251C23.445 20.0809 24.5787 20.3706 25.5971 20.8481C26.1327 21.0993 26.7723 21.3214 27.2435 21.6896C27.5833 21.9551 27.7946 22.2766 28.1722 22.4813C28.5288 22.6747 28.7784 22.7844 29.0877 23.0583C29.5544 23.4715 29.8362 23.4991 30.3443 23.7653C30.8681 24.0397 31.732 24.6978 32.3222 24.7522C32.9241 24.8078 33.6992 26.4121 33.9042 26.8275C34.4292 27.8913 34.9951 28.6186 34.8825 29.8404C34.8474 30.2203 34.8124 30.6002 34.7774 30.9801C34.7405 31.3799 34.8317 32.2088 34.5689 32.529C33.9482 33.285 33.153 33.4122 32.2525 33.4319C30.9729 33.4599 29.654 33.1408 28.4371 32.7845C27.2724 32.4435 26.5393 31.7927 25.5334 31.1539C25.3459 31.0348 24.3436 30.3012 24.2236 30.401C24.0799 30.5204 24.2494 30.8214 24.0756 30.9374C23.5832 31.266 22.6289 30.4348 22.3209 30.2009C20.8792 29.106 19.712 27.7082 18.3221 26.5564C17.8047 26.1276 17.2959 25.5648 16.6591 25.3604C16.5466 25.3243 16.1249 25.0301 16.4275 25.2898C17.1167 25.8811 17.8347 26.4381 18.5251 27.0267C18.8478 27.3018 19.6556 28.3001 19.6138 28.7526C19.5515 29.4289 18.4878 27.2484 19.005 26.8082C19.5635 26.3327 20.1572 25.6681 20.8116 26.2687C21.0873 26.5217 22.0261 28.015 21.0307 27.4547C20.7923 27.3206 20.0665 26.7518 20.181 27.4092C20.2458 27.7807 20.4464 28.1482 20.6075 28.483C21.0908 29.4876 21.517 30.3742 22.1308 31.2835C22.6891 32.1105 24.2315 32.0013 24.9229 32.7889C25.6626 33.6314 26.6031 33.9782 27.6938 34.0788C29.8328 34.2761 31.8386 35.4653 33.9431 34.5073C34.7022 34.1617 34.9342 33.1785 35.2662 32.4455C35.611 31.684 35.8718 30.686 35.7404 29.7964C35.6314 29.0584 35.5042 28.18 35.1038 27.5292C34.9738 27.3179 35.0916 26.8895 34.9286 26.7577C34.4166 26.3437 35.4532 27.624 35.5816 27.7785C36.202 28.5249 36.6587 29.432 36.6011 30.434C36.5629 31.0964 36.4789 31.6541 35.7761 31.9014C35.318 32.0626 34.511 32.4384 33.9992 32.2958C33.2437 32.0852 34.1607 28.052 34.2217 27.3904C34.2666 26.904 34.5484 26.1716 33.986 25.9401C33.0639 25.5606 32.2203 24.9047 31.4264 24.3166C31.0049 24.0043 30.5023 23.8089 30.153 23.4357C29.8929 23.1577 30.7781 23.7065 31.1577 23.7582C32.0844 23.8844 32.242 24.3253 32.6585 25.1117C33.0959 25.9374 32.7439 26.8584 32.5648 27.7302C32.4932 28.0788 32.4563 29.3776 32.0931 29.6406C31.5885 30.0061 30.2164 27.4561 30.1029 27.2733C29.4401 26.2056 28.7115 25.136 28.1287 24.0207C28.0971 23.9602 28.0404 23.7647 28.0475 23.8326C28.074 24.0831 28.2308 24.4403 28.3255 24.6464C28.8066 25.6931 29.7193 26.6761 30.672 27.334C31.148 27.6626 31.689 27.7453 31.6866 26.9267C31.6807 24.9844 29.1737 23.7112 27.5761 23.2473C26.5061 22.9366 27.6071 23.848 27.9717 24.1212C28.4059 24.4466 29.0238 25.0228 29.5995 25.0759C29.7942 25.0938 28.52 24.27 28.4215 24.2284C28.3668 24.2052 26.321 23.503 26.2889 23.8511C26.2253 24.5412 27.7608 25.2312 26.6267 24.8182C25.0009 24.226 26.6745 26.6122 27.0811 27.1014C27.5005 27.6059 29.4709 29.044 27.5861 28.1249C26.6096 27.6488 25.713 27.114 24.9156 26.368C24.7691 26.231 23.3964 24.7945 24.4794 25.4904C26.4487 26.7559 27.8451 28.9239 29.3013 30.7132C29.6303 31.1174 29.7728 31.4627 30.3276 31.5139C30.7422 31.5521 31.2575 31.534 31.6166 31.7805C31.7353 31.862 31.9263 32.3368 31.7535 32.4335C31.1999 32.7434 30.1184 32.1526 29.6328 31.926C29.0032 31.6322 28.3731 31.1859 27.671 31.1212C27.1998 31.0777 27.4285 31.6531 27.4439 31.6256C27.6015 31.3439 27.5484 30.8486 27.5785 30.5215" stroke="white" stroke-width="3" stroke-linecap="round"/>
<path d="M21.1309 29.9272C20.8971 30.0664 20.0466 29.8788 20.2307 30.0741C20.4898 30.349 20.9108 30.4764 21.1963 30.8199" stroke="white" stroke-width="3" stroke-linecap="round"/>
<path d="M16.4651 11.6159C17.0618 12.3338 17.2796 13.5424 17.5207 14.4143C17.8185 15.4915 18.1615 15.9173 19.2388 16.5267C20.3023 17.1283 22.1728 17.3706 22.1339 19.0514C22.1069 20.2223 19.8295 20.5108 18.942 20.5468C17.918 20.5884 15.8555 20.8253 14.9455 20.2604C14.6521 20.0782 13.5281 19.6844 13.416 19.3969C13.2876 19.0675 13.3494 18.5829 13.2769 18.2346C13.1505 17.6276 12.9412 17.0417 12.7685 16.4473C12.6166 15.9243 12.5538 15.419 12.3175 14.9279" stroke="white" stroke-width="3" stroke-linecap="round"/>
<path d="M10.5631 11.5151C10.4335 12.9206 10.3984 11.618 10.3105 11.0485" stroke="white" stroke-width="3" stroke-linecap="round"/>
<path d="M15.5901 8.2841C14.8628 7.73055 15.1511 6.59503 14.5546 5.98015C13.9433 5.34996 13.3534 4.67894 12.4574 4.59632C11.8436 4.53972 11.4976 4.5872 11.4298 5.32256C11.3781 5.88359 11.1968 6.61718 11.4082 7.15958C11.9056 8.4356 13.0524 5.69469 12.9076 4.96623C12.6956 3.89903 11.6768 4.24862 10.9739 4.74687C10.558 5.0417 10.6905 5.58483 10.6236 6.05278C10.5725 6.41027 10.0616 7.33931 10.1367 6.52511C10.1751 6.10852 10.4437 5.45584 10.8407 5.30107C11.4513 5.06304 10.6987 5.0333 10.3967 5.21908C9.41079 5.82566 9.54379 6.54482 9.44249 7.64332C9.41071 7.98794 9.37894 8.33256 9.34716 8.67719C9.29982 9.1905 9.75506 9.98909 9.44551 10.4596C9.42409 10.4922 9.39385 8.17079 9.24732 9.7599C9.18802 10.4029 9.00719 11.0255 8.92738 11.6269C8.84014 12.2842 9.35696 13.0266 9.48351 13.6978C9.53982 13.9965 9.87634 14.819 10.0954 14.9857C10.1952 15.0617 10.7557 15.9333 10.6656 15.925C10.5093 15.9105 10.241 14.2046 10.1211 13.9947C9.976 13.7405 9.6043 12.8996 9.57596 12.6062C9.48123 11.6252 8.87997 10.5384 8.96401 9.62704C9.00635 9.16791 8.9802 8.64019 9.10427 8.19503C9.1745 7.94303 9.83468 7.23485 9.72326 7.44754C9.37723 8.10808 9.13663 7.75507 9.18996 7.1767C9.23281 6.71204 9.74499 6.25832 10.1705 6.15878" stroke="white" stroke-width="3" stroke-linecap="round"/>
</svg>
