<svg width="48" height="49" viewBox="0 0 48 49" fill="none" xmlns="http://www.w3.org/2000/svg">
<path d="M12.4887 8.84463C11.531 9.29148 10.8346 9.90396 10.0194 10.5842C9.67855 10.8686 9.75814 11.3413 9.86941 11.7073C10.1081 12.4924 10.0115 13.3647 10.132 14.1793C10.2296 14.8394 10.1483 15.4838 10.2366 16.1415C10.3089 16.6805 10.6368 17.1769 10.7369 17.7022C10.9645 18.897 11.8058 19.9165 12.307 21.0257C12.5994 21.6728 13.1487 22.184 13.4207 22.841C13.8789 23.9479 14.3609 25.1432 14.9348 26.1934C16.3157 28.7208 17.9133 31.1087 19.7608 33.3229C20.5792 34.3037 21.3416 35.4045 22.2566 36.2927C22.7935 36.8139 23.5993 37.1998 24.2206 37.6213C24.8812 38.0694 25.5538 38.4646 26.2817 38.7886C27.6032 39.3769 28.9416 39.9191 30.3175 40.2508C31.737 40.5929 33.2825 41.013 34.739 40.6694C35.2913 40.5391 35.8717 40.6757 36.4288 40.6762C36.9446 40.6767 37.4012 40.4887 37.9004 40.4108C38.784 40.2727 39.4348 39.5882 40.1755 39.154C41.0373 38.6488 40.9206 38.481 41.2011 37.5319C41.4932 36.5437 42.0157 35.3497 42.0594 34.3208C42.1061 33.2211 41.7941 32.434 41.3007 31.4786C40.7741 30.4588 39.6546 29.4843 38.9092 28.591C38.3402 27.9091 37.8122 27.1958 37.1183 26.6368C35.8614 25.6245 34.2629 25.0584 32.7518 24.5862C31.1513 24.086 29.6374 23.4742 28.1288 22.7407C27.3478 22.3609 26.5504 22.0703 25.903 21.4614C25.0851 20.692 24.0946 20.0403 23.3681 19.1923C22.5138 18.195 21.6847 17.1747 20.8433 16.1664C19.9701 15.1198 19.0192 14.1408 18.5496 12.8407C18.2406 11.985 17.8845 11.0109 17.4749 10.2177C17.168 9.62342 16.93 8.97733 16.497 8.45845C15.8759 7.71405 15.3469 7.16764 14.3028 7.36655C13.9434 7.43502 13.5502 7.38191 13.1842 7.38214C12.9192 7.3823 12.4921 7.8794 12.2989 8.04057C11.6302 8.5986 10.8226 9.39088 11.13 10.3347C11.6538 11.9429 12.3962 13.3473 13.4979 14.6677C14.4769 15.841 15.4558 17.0142 16.4348 18.1875C17.0718 18.9509 17.7089 19.7144 18.3459 20.4779C18.5508 20.7235 18.5384 20.7335 18.2686 20.2038C17.9382 19.5548 16.3249 16.4788 16.2312 16.2989C15.8365 15.541 14.6638 13.3158 14.2017 12.3073C14.1419 12.1769 13.7934 11.6768 14.1321 11.7861C14.9747 12.058 15.9085 13.6676 16.3816 14.3646C16.9906 15.2619 17.28 16.3489 17.8726 17.2195C18.9358 18.7815 19.3146 20.8477 20.0721 22.5574C20.9637 24.5699 22.4232 26.4363 23.6786 28.2361C25.4019 30.7064 27.5744 33.2786 30.2388 34.774C31.1983 35.3126 28.9466 32.9904 28.2416 32.1455C26.2501 29.7587 24.2586 27.3719 22.2671 24.9852C21.4848 24.0477 20.664 23.1374 19.9956 22.1133C19.3509 21.1255 18.8192 20.0971 18.1173 19.136C17.8091 18.714 16.7152 16.823 16.2884 18.0334C15.41 20.5243 15.121 23.5967 16.6857 25.8463C19.1429 29.379 22.7528 31.7329 26.5553 33.606C27.0609 33.855 27.7451 34.2455 28.3262 34.3828C29.1515 34.5777 27.4376 32.9316 26.8987 32.2768C25.3008 30.3353 23.6932 28.3959 22.0061 26.5306C21.7161 26.21 19.0131 23.2342 20.9247 25.8112C22.6084 28.0811 24.3606 30.2982 26.0886 32.534C27.279 34.0743 28.3795 35.8636 29.9231 37.0869C30.4629 37.5147 31.1492 37.892 31.8569 37.8881C32.6088 37.8839 32.5082 36.4523 32.5049 36.0376C32.4888 34.0314 31.8146 32.3282 30.7671 30.6442C30.7301 30.5847 28.8532 28.1383 30.3224 29.8122C31.4619 31.1105 32.6221 32.3907 33.7772 33.675C34.7978 34.81 35.7884 36.008 37.0309 36.9125C37.5219 37.2699 39.0968 38.3561 38.4833 36.859C37.9722 35.612 35.2903 32.5196 36.1537 33.5544C36.4331 33.8893 37.1618 35.2046 37.6514 34.4523C38.5554 33.0631 36.0821 30.3479 35.3829 29.4482C34.3088 28.066 33.149 26.404 31.6994 25.3753C31.4467 25.196 31.1471 25.0964 30.8741 25.2619C30.1703 25.6885 29.3742 25.5967 28.5887 25.5025C27.6836 25.3938 26.7884 25.2234 25.8851 25.1029C25.7925 25.0906 25.0791 24.8962 25.2553 25.1918C25.7975 26.1013 26.6478 26.9733 27.3155 27.7677C28.0297 28.6175 29.1653 29.9561 29.9384 30.7831C30.279 31.1474 31.1124 32.2651 31.0638 31.7688C31.0421 31.5463 30.8437 31.3786 30.7122 31.1978C30.3966 30.7643 30.0602 30.3461 29.7242 29.9282C28.8627 28.8571 27.1282 26.7824 26.2823 25.7606C25.2335 24.4935 24.2503 23.2426 23.3768 21.8939" stroke="white" stroke-width="3" stroke-linecap="round"/>
<path d="M11.0833 10.0558C10.6866 9.99881 10.6512 10.0475 10.338 10.3088C10.182 10.439 9.97444 10.809 9.86806 10.4823C9.74964 10.1187 11.3303 8.92627 11.6493 8.73647C11.8191 8.63548 12.2265 8.47384 12.4282 8.52377C12.6981 8.59058 12.8113 8.85941 12.5836 9.02936C12.2232 9.29848 11.6464 9.59419 11.2026 9.64202C10.9014 9.67448 10.3596 9.81552 10.375 9.32153C10.3841 9.03185 10.4818 8.76267 10.6868 8.54903C11.4104 7.79505 12.5588 6.67169 13.6561 6.80244C13.7546 6.81418 14.1746 7.00092 14.2365 7.05594C14.5027 7.29254 14.7086 7.32703 14.9527 7.61961C15.3391 8.08268 16.0141 9.22754 16.1255 7.99361C16.2055 7.1079 14.8675 6.02253 14.0712 5.83446C12.7312 5.51796 11.5293 6.94975 11.3541 8.16985C11.3216 8.39673 11.6085 8.60392 11.6991 8.80427C11.7754 8.97326 11.8597 9.13946 11.9405 9.30645C12.1114 9.66008 11.6729 8.54085 11.7134 8.15015C11.7899 7.41281 12.1479 6.84357 12.2091 6.16536C12.2451 5.76761 11.538 6.52679 11.4586 6.64129C11.413 6.70705 11.291 6.77928 11.3715 6.86431C11.5115 7.01226 11.9089 6.32648 11.9903 6.23869C12.301 5.90323 12.4864 5.56514 12.8493 5.26237C13.2019 4.96812 13.6075 5.71263 13.8006 5.94409" stroke="white" stroke-width="3" stroke-linecap="round"/>
<path d="M11.8375 18.0338C11.7837 18.6296 11.863 19.0615 11.9956 19.6233C12.0775 19.9702 12.3815 20.2897 12.4072 20.6324C12.434 20.9875 12.7241 21.3872 12.7995 21.7739C12.8616 22.0923 12.9078 22.3248 13.078 22.6071C13.7068 23.6496 14.4428 24.3984 15.2025 25.3088" stroke="white" stroke-width="3" stroke-linecap="round"/>
<path d="M13.6833 9.14005C14.2926 9.63267 14.5604 10.2265 14.8951 10.9258C15.4335 12.051 16.1041 13.0829 16.7069 14.1711C16.9736 14.6527 17.3677 15.2821 17.4174 15.8456C17.4796 16.5512 16.69 14.6294 16.3499 14.008C15.1767 11.8648 13.7626 9.66102 12.9176 7.35825C12.8699 7.22823 12.6394 5.87385 12.9912 6.25833C14.2153 7.59622 15.1956 9.42099 16.0788 10.9977C16.1221 11.075 17.2596 13.3047 16.5996 12.8128C15.7833 12.2043 15.1594 11.2348 14.6484 10.3729C14.385 9.92854 13.8565 8.46479 14.0357 8.94934C15.0629 11.7276 16.8158 14.2161 17.8116 17.0165C18.0924 17.8063 18.7858 18.6017 19.2793 19.2536C19.333 19.3245 20.5075 20.7276 19.939 19.9655C19.0815 18.8157 18.2902 17.6181 17.5139 16.4125C17.2966 16.0749 17.0736 15.6095 17.6081 16.1979C18.4544 17.1296 19.1524 18.2264 19.8645 19.2611C20.3887 20.0227 20.8471 20.8362 21.4092 21.5704C21.8512 22.1477 21.2257 21.6467 21.0204 21.4509C19.4084 19.9139 17.9331 17.8014 16.7717 15.8883C16.6127 15.6264 16.4405 15.3209 16.3201 15.0376C16.1001 14.5201 17.4155 15.3866 17.8552 15.7371C19.4993 17.0481 21.2159 18.5278 22.5832 20.1349C22.894 20.5002 23.1271 20.7807 23.3213 21.2074C23.6033 21.8268 22.134 20.5343 21.5889 20.1269C20.5994 19.3874 19.5847 18.4513 18.3619 18.1088C17.3272 17.8191 19.0929 20.4009 19.0984 20.4088C20.1495 21.9117 21.2754 23.4177 22.5085 24.778C23.069 25.3963 23.6693 25.5182 24.354 25.9433C24.7308 26.1772 25.4726 26.9663 24.5745 25.9729C23.4266 24.7033 22.0819 23.6061 20.8262 22.4467C19.3864 21.1171 21.4157 22.9308 21.6788 23.1856C22.9666 24.4327 24.3616 25.6749 25.5373 27.0289C26.1706 27.7582 23.7572 26.8983 23.6645 26.8655C22.5001 26.4542 21.3931 25.9603 20.3825 25.2422C20.3035 25.1861 18.7336 23.6482 19.3198 24.2608C20.5772 25.5748 21.9088 26.8795 23.0086 28.3302C23.6202 29.1369 24.1878 30.1996 22.8774 28.6436C20.4667 25.7812 18.1925 22.729 16.2304 19.5398C15.4246 18.23 17.9391 21.4163 18.0103 21.5174C19.2542 23.2837 20.2881 25.2075 21.2394 27.1441C22.1304 28.9579 21.5479 28.096 20.7214 27.0126C20.4531 26.6609 17.8307 23.7758 18.1053 23.3118C18.3011 22.9808 18.6583 23.8519 18.8822 24.1646C19.6271 25.2048 20.2851 26.3126 20.975 27.3894C21.3721 28.0093 21.5743 28.3029 21.9221 28.9182C22.0219 29.0949 22.1162 29.2747 22.2073 29.456C22.395 29.8297 22.2792 29.6469 22.1854 29.4912C21.2662 27.964 20.2653 26.5413 19.1644 25.1392C18.3185 24.062 18.1152 23.7108 18.8875 25.3183C19.6953 26.9999 21.0199 28.8438 21.4243 30.6858C21.4892 30.9814 21.1689 30.6048 21.1368 30.5756C20.1974 29.7204 19.3237 28.7685 18.5103 27.7945C18.1285 27.3373 17.6461 26.7099 17.3202 26.1782C17.0798 25.786 17.1759 25.7185 17.5358 26.0585C18.691 27.15 19.5031 28.5576 20.2464 29.9448C20.7918 30.9626 22.2491 34.0607 21.9982 32.9335C21.8742 32.3764 21.5101 31.9015 21.2473 31.3949C20.0518 29.0899 18.8206 26.8028 17.5847 24.5193C16.6439 22.7809 16.6532 22.8097 15.7864 21.2286C15.46 20.6333 14.2767 19.0262 14.817 19.4374C15.1271 19.6734 15.266 20.0745 15.4915 20.3923C16.4882 21.7971 17.478 23.2005 18.3701 24.6754C19.2014 26.0497 21.743 30.1072 20.677 28.9057C18.3392 26.2706 16.9338 22.7206 14.9305 19.8198C14.8769 19.7423 14.7341 19.5045 14.8051 19.5665C14.9237 19.67 15.2065 20.1198 15.2336 20.164C15.7808 21.0563 16.5726 22.2817 16.5742 23.3752C16.5752 24.0072 14.2894 20.4792 14.2607 20.4276C13.6862 19.3993 12.9021 17.8785 12.3806 16.8133C12.332 16.7141 11.1666 14.6758 11.3282 14.3076C11.4493 14.0317 11.7408 14.7505 11.9058 15.0025C12.5933 16.0526 13.208 17.1529 13.7906 18.2639C13.8664 18.4085 15.1829 21.2697 14.5074 19.5669C14.0192 18.3361 13.5584 17.1038 12.9653 15.9186C12.3385 14.6663 13.3837 15.8206 13.6993 16.2281C14.1399 16.797 14.6999 17.5783 14.8469 18.3055C15.1774 19.9401 13.5717 15.2223 13.0067 13.6532C12.8598 13.2451 12.677 12.8466 12.5807 12.4236C12.5526 12.3 12.8586 12.3647 12.9605 12.44C13.9709 13.1864 14.6014 14.4116 15.2984 15.427C15.9129 16.3222 14.786 13.9891 14.7579 13.9263C14.4378 13.2127 14.2096 12.4087 13.7772 11.7527C13.6251 11.5219 12.8334 9.53372 12.6948 9.7743C12.3973 10.2907 12.5914 11.3555 12.6669 11.8921C12.85 13.1927 13.317 14.4815 13.8719 15.6674C14.0898 16.1331 14.3429 16.2344 14.752 16.5112C16.0413 17.3834 17.1724 18.5091 18.3735 19.4956C20.1443 20.95 21.8193 22.3388 23.9435 23.134C24.7572 23.4387 25.3897 23.8881 26.1411 24.3132C26.5882 24.5661 27.9707 25.0264 27.4631 25.1047C26.5876 25.2397 25.2448 24.392 24.5519 23.9992C23.5154 23.4118 22.7375 22.6246 21.8264 21.8879C21.4407 21.576 22.145 21.8838 22.2506 21.927C22.8618 22.1772 23.41 22.5515 24.0319 22.7795C24.9959 23.1328 25.9686 23.4929 26.8684 23.9896C27.0351 24.0816 27.9194 24.5078 27.8501 24.7405C27.7988 24.9128 26.3108 23.6092 26.231 23.5403C25.733 23.1104 25.0999 22.8492 24.6353 22.3887C24.2653 22.0221 24.1671 21.9983 24.7787 22.3461C25.8855 22.9757 27.1697 23.3038 28.3233 23.8448C28.9301 24.1293 29.6546 24.3809 30.1884 24.798C30.5733 25.0987 30.8126 25.4629 31.2403 25.6948C31.6443 25.9139 31.927 26.0382 32.2774 26.3484C32.8061 26.8165 33.1253 26.8478 33.7009 27.1493C34.2942 27.4601 35.2727 28.2056 35.9414 28.2673C36.6231 28.3301 37.5012 30.1476 37.7334 30.618C38.3281 31.8231 38.9692 32.6469 38.8416 34.031C38.8019 34.4613 38.7622 34.8917 38.7225 35.322C38.6807 35.7749 38.784 36.7138 38.4863 37.0765C37.7833 37.933 36.8825 38.0771 35.8624 38.0994C34.4129 38.131 32.9189 37.7696 31.5404 37.366C30.221 36.9797 29.3907 36.2426 28.2512 35.5189C28.0388 35.384 26.9034 34.553 26.7674 34.666C26.6047 34.8012 26.7967 35.1422 26.5998 35.2736C26.0421 35.6459 24.961 34.7043 24.6121 34.4393C22.979 33.1991 21.6568 31.6156 20.0825 30.311C19.4963 29.8252 18.92 29.1877 18.1986 28.9561C18.0712 28.9153 17.5934 28.582 17.9363 28.8762C18.7169 29.546 19.5303 30.177 20.3123 30.8437C20.6779 31.1554 21.5929 32.2862 21.5456 32.7988C21.475 33.5649 20.2701 31.0949 20.856 30.5962C21.4887 30.0576 22.1612 29.3047 22.9025 29.9851C23.2147 30.2717 24.2782 31.9632 23.1506 31.3286C22.8806 31.1766 22.0584 30.5323 22.1882 31.277C22.2615 31.6979 22.4887 32.1141 22.6712 32.4934C23.2187 33.6313 23.7015 34.6357 24.3968 35.6657C25.0292 36.6025 26.7764 36.4788 27.5596 37.3709C28.3975 38.3254 29.4629 38.7182 30.6984 38.8322C33.1215 39.0556 35.3936 40.4028 37.7775 39.3176C38.6373 38.9261 38.9002 37.8124 39.2762 36.982C39.6668 36.1193 39.9622 34.9888 39.8133 33.9811C39.6899 33.1452 39.5458 32.1501 39.0923 31.4129C38.945 31.1736 39.0785 30.6883 38.8939 30.539C38.3139 30.0701 39.4881 31.5203 39.6335 31.6953C40.3363 32.5408 40.8537 33.5684 40.7883 34.7034C40.7452 35.4538 40.6499 36.0855 39.8539 36.3656C39.3349 36.5483 38.4207 36.974 37.8411 36.8124C36.9852 36.5739 38.024 32.0051 38.0931 31.2557C38.1439 30.7048 38.4631 29.8751 37.8261 29.6129C36.7816 29.183 35.8259 28.44 34.9267 27.7738C34.4492 27.4201 33.8798 27.1987 33.4842 26.7759C33.1895 26.461 34.1922 27.0827 34.6223 27.1412C35.672 27.2842 35.8505 27.7836 36.3223 28.6744C36.8178 29.6097 36.419 30.6531 36.2162 31.6406C36.1351 32.0355 36.0932 33.5067 35.6818 33.8047C35.1103 34.2187 33.556 31.3301 33.4274 31.123C32.6766 29.9136 31.8512 28.702 31.1911 27.4386C31.1553 27.3701 31.091 27.1486 31.0991 27.2256C31.1292 27.5093 31.3067 27.914 31.414 28.1474C31.959 29.333 32.9929 30.4466 34.0721 31.1918C34.6112 31.5641 35.2241 31.6577 35.2213 30.7305C35.2147 28.5302 32.3748 27.088 30.5651 26.5625C29.353 26.2106 30.6002 27.243 31.0132 27.5524C31.505 27.921 32.205 28.5737 32.8572 28.6339C33.0778 28.6542 31.6343 27.721 31.5228 27.6738C31.4608 27.6476 29.1434 26.8522 29.107 27.2465C29.0349 28.0282 30.7744 28.8099 29.4896 28.3419C27.648 27.6712 29.5438 30.3742 30.0044 30.9283C30.4794 31.4998 32.7115 33.1288 30.5764 32.0877C29.4702 31.5484 28.4547 30.9426 27.5514 30.0976C27.3854 29.9424 25.8304 28.3151 27.0572 29.1034C29.288 30.537 30.8698 32.9928 32.5194 35.0197C32.8921 35.4776 33.0534 35.8687 33.682 35.9267C34.1516 35.97 34.7353 35.9495 35.1421 36.2287C35.2765 36.321 35.4928 36.8589 35.2971 36.9684C34.67 37.3195 33.445 36.6502 32.8949 36.3935C32.1817 36.0607 31.4679 35.5551 30.6726 35.4818C30.1389 35.4326 30.3979 36.0844 30.4153 36.0533C30.5939 35.7341 30.5337 35.173 30.5678 34.8025" stroke="white" stroke-width="3" stroke-linecap="round"/>
<path d="M23.2643 34.1294C22.9994 34.287 22.036 34.0746 22.2446 34.2958C22.5381 34.6071 23.015 34.7514 23.3385 35.1406" stroke="white" stroke-width="3" stroke-linecap="round"/>
<path d="M17.9793 13.3869C18.6552 14.2001 18.9018 15.5692 19.1749 16.5568C19.5123 17.777 19.9008 18.2593 21.1212 18.9497C22.3259 19.6311 24.4447 19.9056 24.4008 21.8096C24.3701 23.1359 21.7904 23.4627 20.785 23.5035C19.6251 23.5507 17.2887 23.8191 16.2579 23.1791C15.9255 22.9727 14.6523 22.5267 14.5253 22.2009C14.3799 21.8278 14.4498 21.2789 14.3677 20.8844C14.2245 20.1967 13.9874 19.5331 13.7918 18.8597C13.6197 18.2673 13.5486 17.6949 13.2809 17.1386" stroke="white" stroke-width="3" stroke-linecap="round"/>
<path d="M11.2934 13.2724C11.1466 14.8644 11.1068 13.3889 11.0073 12.7438" stroke="white" stroke-width="3" stroke-linecap="round"/>
<path d="M16.9878 9.61256C16.1639 8.98551 16.4905 7.69922 15.8148 7.00271C15.1223 6.28884 14.4541 5.52873 13.4391 5.43514C12.7439 5.37103 12.3519 5.42481 12.2751 6.2578C12.2165 6.89332 12.0111 7.72431 12.2506 8.33873C12.8141 9.78418 14.1131 6.67934 13.9492 5.85417C13.709 4.64526 12.5548 5.04127 11.7587 5.60568C11.2875 5.93966 11.4376 6.5549 11.3619 7.08498C11.304 7.48994 10.7253 8.54233 10.8103 7.62002C10.8538 7.14812 11.158 6.40878 11.6078 6.23346C12.2995 5.96382 11.4469 5.93014 11.1048 6.14058C9.98801 6.8277 10.1387 7.64235 10.0239 8.8867C9.98793 9.27708 9.95193 9.66746 9.91593 10.0578C9.86231 10.6393 10.378 11.5439 10.0273 12.0769C10.0031 12.1138 9.96883 9.48421 9.80283 11.2843C9.73567 12.0127 9.53082 12.7179 9.44041 13.3992C9.3416 14.1438 9.92704 14.9847 10.0704 15.7451C10.1342 16.0834 10.5154 17.0151 10.7636 17.204C10.8766 17.29 11.5115 18.2773 11.4094 18.2679C11.2323 18.2516 10.9284 16.3192 10.7927 16.0814C10.6283 15.7934 10.2072 14.8409 10.1751 14.5085C10.0678 13.3972 9.38672 12.1662 9.48191 11.1338C9.52987 10.6137 9.50026 10.0159 9.6408 9.51167C9.72035 9.22621 10.4682 8.424 10.342 8.66493C9.94999 9.41317 9.67745 9.01329 9.73787 8.35812C9.7864 7.83178 10.3666 7.31781 10.8486 7.20505" stroke="white" stroke-width="3" stroke-linecap="round"/>
</svg>
