<svg width="76" height="74" viewBox="0 0 76 74" fill="none" xmlns="http://www.w3.org/2000/svg">
<path d="M6.33325 47.1442V17.6058C6.33325 13.505 8.77159 12.5183 11.7483 15.4167L19.9499 23.4025C21.1849 24.605 23.2116 24.605 24.4149 23.4025L35.7516 12.3333C36.0445 12.0475 36.3925 11.8207 36.7756 11.666C37.1587 11.5113 37.5694 11.4316 37.9841 11.4316C38.3988 11.4316 38.8095 11.5113 39.1926 11.666C39.5756 11.8207 39.9236 12.0475 40.2166 12.3333L51.5849 23.4025C52.8199 24.605 54.8466 24.605 56.0499 23.4025L64.2516 15.4167C67.2283 12.5183 69.6666 13.505 69.6666 17.6058V47.175C69.6666 56.425 63.3332 62.5917 53.8332 62.5917H22.1666C13.4266 62.5608 6.33325 55.6542 6.33325 47.1442Z" stroke="black" stroke-width="8.5" stroke-linecap="round" stroke-linejoin="round"/>
</svg>
