<svg width="76" height="74" viewBox="0 0 76 74" fill="none" xmlns="http://www.w3.org/2000/svg">
<path d="M6.3335 47.1442V17.6058C6.3335 13.505 8.77183 12.5183 11.7485 15.4167L19.9502 23.4025C21.1852 24.605 23.2118 24.605 24.4152 23.4025L35.7518 12.3333C36.0448 12.0475 36.3928 11.8207 36.7759 11.666C37.1589 11.5113 37.5696 11.4316 37.9843 11.4316C38.3991 11.4316 38.8097 11.5113 39.1928 11.666C39.5759 11.8207 39.9239 12.0475 40.2168 12.3333L51.5852 23.4025C52.8202 24.605 54.8468 24.605 56.0502 23.4025L64.2518 15.4167C67.2285 12.5183 69.6668 13.505 69.6668 17.6058V47.175C69.6668 56.425 63.3335 62.5917 53.8335 62.5917H22.1668C13.4268 62.5608 6.3335 55.6542 6.3335 47.1442Z" stroke="black" stroke-width="8.5" stroke-linecap="round" stroke-linejoin="round"/>
</svg>
