<svg width="80" height="91" viewBox="0 0 80 91" fill="none" xmlns="http://www.w3.org/2000/svg">
<path d="M71.4286 39.8125H67.1429V27.0156C67.1429 12.1215 54.9643 0 40 0C25.0357 0 12.8571 12.1215 12.8571 27.0156V39.8125H8.57143C3.83929 39.8125 0 43.6338 0 48.3438V82.4688C0 87.1787 3.83929 91 8.57143 91H71.4286C76.1607 91 80 87.1787 80 82.4688V48.3438C80 43.6338 76.1607 39.8125 71.4286 39.8125ZM52.8571 39.8125H27.1429V27.0156C27.1429 19.9596 32.9107 14.2188 40 14.2188C47.0893 14.2188 52.8571 19.9596 52.8571 27.0156V39.8125Z" fill="black"/>
</svg>
